<?xml version="1.0" encoding="UTF-8"?>
<svg width="168px" height="60px" viewBox="0 0 168 60" version="1.1" xmlns="http://www.w3.org/2000/svg" xmlns:xlink="http://www.w3.org/1999/xlink">
    <title>Logo</title>
    <g id="Symbols" stroke="none" stroke-width="1" fill="none" fill-rule="evenodd">
        <g id="Global-/-Navigation-/-Desktop-/-Default" transform="translate(-12.000000, -6.000000)" fill="#0079C2">
            <g id="Constrains" transform="translate(12.000000, 0.000000)">
                <g id="Global-/-Logos-/-Primary-/-Alt-1" transform="translate(0.000000, 6.000000)">
                    <path d="M77.045291,27.2541932 C79.0290295,27.2541932 80.7156532,27.8183304 81.9251678,28.8856962 C83.211169,30.0195929 83.9286793,31.6609057 84.0607747,33.7665768 L84.0767644,34.1029039 L84.0812972,34.2254533 L74.2129037,34.2254533 L74.2129037,37.7745543 C74.2183138,40.4486789 75.5120499,41.98428 77.7623437,41.9883796 C80.4952895,41.9937748 82.277076,39.8786863 82.6277365,37.8186931 L82.6564036,37.6257966 L82.6697094,37.5212562 L83.8505653,37.5212562 L83.8312645,37.656983 C83.4556307,40.2699061 81.3151466,43.0841499 77.5020758,43.0908971 C75.5290112,43.094399 73.6758453,42.3317229 72.2845818,40.9416584 C70.825327,39.4854142 70.0246377,37.4741106 70.0300205,35.2780311 C70.0356041,33.0384664 70.8083658,30.9760639 72.2063553,29.4709171 C73.5148594,28.0622579 75.2785399,27.2541932 77.045291,27.2541932 Z M46.2238701,23.0750682 L46.2238701,27.6723546 L49.8455417,27.6723546 L49.8455417,27.7909508 L49.8461265,28.5944766 L49.8468576,28.71278 L46.1997441,28.71278 L46.1997441,39.3294822 C46.2054466,40.852638 46.7698478,41.6262952 47.8783258,41.6290771 C49.2467221,41.6328584 49.7028744,40.561744 49.8552479,39.8576452 L49.8742004,39.7640421 L49.8918927,39.6666761 L50.9997859,39.6666761 L50.9749288,39.8059168 C50.8405546,40.5764992 50.1451422,43.0901529 46.8410559,43.0901529 C44.0428511,43.0895835 42.5836008,41.4569353 42.5021375,38.2372824 L42.49853,37.9574267 L42.49853,28.7165868 L40.0727747,28.7165868 L40.0727747,27.6704512 L42.4820074,27.6704512 L42.4820074,23.3135783 L42.6019061,23.3135783 C43.4215239,23.3150425 44.9293328,23.2051828 45.8388126,23.1158938 L46.0924202,23.0898561 L46.2238701,23.0750682 Z M11.7779994,17.0896207 L11.8053422,17.1694169 L20.3430063,41.6374227 L24.5036372,41.6374227 L24.5036372,28.7111694 L22.1717538,28.7111694 L22.1717538,27.6826036 L28.1071777,27.6826036 L28.1095172,27.7987108 L28.1419776,29.6048869 C29.3087966,28.0587439 30.8946761,27.2645886 32.8718348,27.2632709 C34.3171989,27.2625388 35.6069871,27.7546398 36.5034492,28.6490894 C37.338373,29.4824058 37.8054463,30.6192765 37.862942,31.951136 L37.8689783,32.2394795 L37.8689783,41.6362514 L40.2359539,41.6362514 L40.2359539,42.6646708 L32.0423405,42.6646708 L32.0423405,41.6362514 L34.2234732,41.6362514 L34.2234732,31.4880774 C34.2224497,29.5921488 33.4670879,28.6307875 31.9791744,28.6297626 C30.4798698,28.6291909 28.2635316,30.1091287 28.1527207,34.1611137 L28.1484112,34.4622064 L28.1484112,41.6362514 L30.4738609,41.6362514 L30.4738609,42.6646708 L12.6592548,42.6646708 L12.6592548,41.6381548 L15.9095329,41.6381548 L13.5541085,34.6509354 L6.08529727,34.6509354 L3.76438027,41.6381548 L6.97956605,41.6381548 L6.97956605,42.6646708 L1.18836362e-12,42.6646708 L1.18836362e-12,41.6381548 L2.35381603,41.6381548 L10.7340035,17.0896207 L11.7779994,17.0896207 Z M56.8305178,17.1613641 L56.8305178,29.4372417 C57.4896681,28.6979921 59.0245176,27.2648815 61.9823599,27.2632709 C65.7099245,27.2616987 67.0925692,29.7393624 67.1583366,31.9294167 L67.1608136,32.0891112 L67.1608136,41.6362514 L69.5277892,41.6362514 L69.5277892,42.6646708 L61.112217,42.6646708 L61.112217,41.6362514 L63.4079845,41.6362514 L63.4079845,31.7481105 C63.4028669,30.3441365 62.9685997,28.672223 60.9279825,28.6709053 C60.0063709,28.6703196 59.1131257,29.0550984 58.4131805,29.753059 C57.7216611,30.442985 56.9027035,31.7436647 56.8350141,34.0617965 L56.8305178,34.369965 L56.8305178,41.6362514 L59.1259928,41.6362514 L59.1259928,42.6646708 L50.7107131,42.6646708 L50.7107131,41.6362514 L53.1135121,41.6362514 L53.1135121,18.2281442 L50.88983,18.2281442 L50.88983,17.1613641 L56.8305178,17.1613641 Z M104.681793,27.2632693 C107.49277,27.2617063 109.271642,28.7985044 109.376358,31.2912829 L109.381237,31.5137 L109.381237,41.6362514 L111.782135,41.6362514 L111.782135,42.6646708 L103.516436,42.6646708 L103.516436,41.6362514 L105.698008,41.6362514 L105.698008,32.3115157 L105.696552,31.8168226 C105.689275,30.9947766 105.645613,30.2028948 105.383639,29.7104522 C105.339774,29.6043013 104.904044,28.6726623 103.664117,28.6726623 C102.662524,28.6726623 101.640461,29.2032704 101.000026,30.0552596 C100.295743,31.0241938 100.170537,32.2709112 100.100906,34.1549572 L100.089088,34.4941249 L100.089088,41.6362514 L102.199013,41.6362514 L102.199013,42.6646708 L94.1078984,42.6646708 L94.1078984,41.6362514 L96.3016058,41.6362514 L96.3014244,32.064072 C96.2994288,31.1561473 96.2754815,30.2521391 95.9881146,29.7104522 C95.9420559,29.6043013 95.5061803,28.6726623 94.2685919,28.6726623 C93.2639286,28.6726623 92.2427426,29.2032704 91.6004073,30.0552596 C90.8994386,31.0239173 90.7745473,32.2702275 90.7039554,34.1548458 L90.6919554,34.4941249 L90.6919554,41.6362514 L92.794569,41.6362514 L92.794569,42.6646708 L84.5715658,42.6646708 L84.5715658,41.6362514 L87.0110656,41.6362514 L87.0110656,28.7111694 L84.5361811,28.7111694 L84.5361811,27.6827501 L90.5783441,27.6827501 L90.5818533,27.7981251 L90.6137288,29.2404598 C91.7795243,27.9861221 93.5287292,27.2645886 95.4810308,27.2632693 C97.5272044,27.2619532 98.999765,28.0512768 99.7615604,29.5356326 C100.456095,28.6234668 101.946056,27.2648815 104.681793,27.2632693 Z M114.60999,38.7918461 C115.668608,38.7918461 116.528369,39.6542308 116.528369,40.7060765 C116.528369,41.7674393 115.668608,42.6307025 114.60999,42.6307025 C113.545523,42.6307025 112.679913,41.7674393 112.679913,40.7060765 C112.679913,39.6542308 113.545523,38.7918461 114.60999,38.7918461 Z M164.917726,38.7712016 C165.976344,38.7712016 166.834643,39.6341719 166.834643,40.6858713 C166.834643,41.7473804 165.976344,42.6103508 164.917726,42.6103508 C163.85326,42.6103508 162.98765,41.7473804 162.98765,40.6858713 C162.98765,39.6341719 163.85326,38.7712016 164.917726,38.7712016 Z M140.582678,38.7712016 C141.641296,38.7712016 142.501057,39.6341719 142.501057,40.6858713 C142.501057,41.7473804 141.641296,42.6103508 140.582678,42.6103508 C139.518212,42.6103508 138.652602,41.7473804 138.652602,40.6858713 C138.652602,39.6341719 139.518212,38.7712016 140.582678,38.7712016 Z M137.387817,17.1041158 L137.390741,24.1752309 L144.476462,24.1752309 L144.476462,35.4544613 L137.390741,35.4544613 L137.390741,42.5274799 L126.112953,42.5274799 L126.112953,35.4544613 L119.024309,35.4544613 L119.022847,24.1758166 L126.112953,24.1758166 L126.112953,17.1041158 L137.387817,17.1041158 Z M166.432544,16.9090909 C167.428288,18.6436701 168,21.1328725 168,24.2244264 C168,32.4448998 163.369279,37.9503988 162.230241,39.1572981 C161.091203,40.3637581 158.829212,42.2304037 157.957753,42.4188399 C157.086295,42.2304037 154.824304,40.3637581 153.685266,39.1572981 C152.544766,37.9509844 147.916969,32.4448998 147.916969,24.2244264 C147.916969,21.1331653 148.487219,18.6439629 149.484425,16.9096766 C151.800517,18.1356671 154.132662,18.81001 157.49305,18.866331 L157.957753,18.8701742 C161.570798,18.8695885 164.011175,18.1908083 166.432544,16.9090909 Z M114.60999,39.0981464 C113.668346,39.0981464 112.988433,39.7715092 112.988433,40.7060765 C112.988433,41.6503073 113.668346,42.3244022 114.60999,42.3244022 C115.545784,42.3244022 116.222773,41.6503073 116.222773,40.7060765 C116.222773,39.7715092 115.545784,39.0981464 114.60999,39.0981464 Z M164.917726,39.0779411 C163.976083,39.0779411 163.294707,39.7515968 163.294707,40.6858713 C163.294707,41.6303948 163.976083,42.3040505 164.917726,42.3040505 C165.853521,42.3040505 166.529048,41.6303948 166.529048,40.6858713 C166.529048,39.7515968 165.853521,39.0779411 164.917726,39.0779411 Z M140.582678,39.0779411 C139.641035,39.0779411 138.961122,39.7515968 138.961122,40.6858713 C138.961122,41.6303948 139.641035,42.3040505 140.582678,42.3040505 C141.518473,42.3040505 142.194,41.6303948 142.194,40.6858713 C142.194,39.7515968 141.518473,39.0779411 140.582678,39.0779411 Z M114.835165,39.597861 C115.406877,39.597861 115.602809,39.8126519 115.602809,40.2056299 C115.602809,40.6293551 115.305987,40.7877761 114.921434,40.8179377 L115.57649,41.7930619 L115.259197,41.7930619 L114.639233,40.8179377 L114.169874,40.8179377 L114.169874,41.7930619 L113.889135,41.7930619 L113.889135,39.597861 L114.835165,39.597861 Z M165.14144,39.5779485 C165.714614,39.5779485 165.909084,39.7920073 165.909084,40.1851318 C165.909084,40.6092962 165.612261,40.7671316 165.22917,40.798318 L165.884227,41.7731495 L165.566934,41.7731495 L164.94697,40.798318 L164.476148,40.798318 L164.476148,41.7731495 L164.19541,41.7731495 L164.19541,39.5779485 L165.14144,39.5779485 Z M140.807854,39.5779485 C141.379566,39.5779485 141.575498,39.7920073 141.575498,40.1851318 C141.575498,40.6092962 141.277214,40.7671316 140.895585,40.798318 L141.550641,41.7731495 L141.231886,41.7731495 L140.611922,40.798318 L140.142562,40.798318 L140.142562,41.7731495 L139.861824,41.7731495 L139.861824,39.5779485 L140.807854,39.5779485 Z M114.773754,39.8535017 L114.169874,39.8535017 L114.169874,40.5627362 L114.558814,40.5627362 C114.865871,40.5627362 115.29429,40.6138351 115.29429,40.2005054 C115.29429,39.8939122 115.03987,39.8535017 114.773754,39.8535017 Z M165.080028,39.8334428 L164.476148,39.8334428 L164.476148,40.5428238 L164.865088,40.5428238 C165.173608,40.5428238 165.602026,40.5939226 165.602026,40.1803001 C165.602026,39.8739998 165.346145,39.8334428 165.080028,39.8334428 Z M140.74498,39.8334428 L140.142562,39.8334428 L140.142562,40.5428238 L140.531502,40.5428238 C140.83856,40.5428238 141.266978,40.5939226 141.266978,40.1803001 C141.266978,39.8739998 141.012559,39.8334428 140.74498,39.8334428 Z M165.400245,19.4356291 C163.962558,20.1972559 161.257201,20.9099362 158.339448,20.9686483 L157.957753,20.972548 C154.89595,20.972548 152.01692,20.2311021 150.515261,19.4356291 C149.965482,20.2658025 149.716912,22.5662759 149.716912,24.150194 C149.716912,31.5661166 153.584376,36.3266558 154.112222,36.9704428 C154.824304,37.8372199 157.476697,40.2185144 157.957753,40.3319861 C158.43881,40.2185144 161.091203,37.8372199 161.803285,36.9704428 C162.332594,36.3260701 166.198595,31.565531 166.198595,24.1494619 C166.198595,22.5649581 165.950025,20.2650704 165.400245,19.4356291 Z M164.938197,20.6431141 C165.435338,21.3896845 165.534766,23.3129927 165.492363,24.7373183 C165.280347,32.0907218 161.901251,35.6978031 161.426042,36.2765818 C160.785608,37.0572669 158.392021,39.2919999 157.957753,39.4053252 C157.524948,39.2919999 155.129899,37.0572669 154.490927,36.2765818 C154.014256,35.6978031 150.636622,32.0907218 150.421682,24.7377576 C150.380741,23.3135783 150.478707,21.3902701 150.975848,20.6431141 C152.26816,21.3271143 154.954457,21.7264494 157.597711,21.7598811 L157.957753,21.7621644 L158.317629,21.7598112 C160.959831,21.7259135 163.648682,21.3271143 164.938197,20.6431141 Z M157.457688,34.8216554 C157.481997,35.3972679 157.509664,36.0757873 157.522078,36.5503005 L157.526411,36.7402783 L157.529949,36.8804658 C157.540608,37.3070642 157.551268,37.7728705 157.551268,37.8697241 C157.820309,38.0490825 158.152223,37.8968108 158.152223,37.8968108 C158.159012,37.8304639 158.211188,37.2063638 158.227973,36.4943606 L158.231181,36.3287056 L158.23349,36.2225554 C158.241504,35.8749961 158.254137,35.2912524 158.131753,35.1677806 C158.068879,35.0847633 157.927048,34.955918 157.71357,34.8942773 C157.576125,34.8540131 157.574663,34.8668977 157.457688,34.8216554 Z M157.342176,35.9972219 C157.023421,36.1216747 156.763153,36.5995734 156.76754,36.991673 C156.769002,37.067516 156.78801,37.3770374 156.934228,37.4522947 C156.989791,37.4795279 157.030732,37.4499521 157.054127,37.4159838 C157.145617,37.2776843 157.139351,36.9872805 157.276574,36.7867132 L157.35826,36.6950361 L157.342176,35.9972219 Z M131.727721,30.2814709 C131.432361,30.2814709 131.284681,30.4583403 131.107757,30.7520489 C131.0288,30.8823583 130.357294,31.8634856 129.63187,32.9185525 L129.194455,33.5542504 C128.614099,34.3971044 128.068179,35.1878395 127.832476,35.5286937 C128.876576,36.245866 130.12618,36.6864342 131.474753,36.7457134 L131.787671,36.7525772 C133.222068,36.7525772 134.554114,36.3209456 135.66537,35.5806711 C135.66537,35.5806711 132.526071,31.0473681 132.347685,30.7520489 C132.170762,30.4583403 132.023082,30.2814709 131.727721,30.2814709 Z M157.136009,32.3986326 C156.037912,32.4059534 155.596334,34.0826986 157.387504,34.5326321 C157.644847,34.5979332 157.728191,34.6251664 157.836393,34.6808041 C158.033787,34.7821233 158.106896,34.8459603 158.199013,34.9319059 C158.290253,35.0195207 158.354355,35.12672 158.375597,35.2635489 L158.383248,35.3718832 L158.38471,36.2287041 L158.508022,36.1583676 C159.416427,35.5935358 159.471718,34.4589182 158.510457,34.0431665 C158.392021,33.99075 158.079114,33.8728858 157.927048,33.8081704 C157.736964,33.7255923 157.40505,33.5598504 157.269067,33.5141689 C157.14332,33.4714157 156.937152,33.4415471 157.21058,33.300403 C157.20071,33.1509498 157.185906,33.036746 157.17727,32.924313 L157.171101,32.8112303 L157.163303,32.6827212 C157.155504,32.5927465 157.143807,32.4954618 157.136009,32.3986326 Z M131.727721,31.6072592 C131.935351,31.6072592 134.239745,35.233521 134.239745,35.233521 C133.561294,35.5871133 132.702995,35.7635435 131.727721,35.7642755 C130.752448,35.7642755 129.895611,35.5871133 129.21716,35.233521 C129.21716,35.233521 131.521554,31.6072592 131.727721,31.6072592 Z M138.35578,27.392409 C136.608475,27.4194958 135.045406,27.6906565 134.090603,27.7462942 C133.086086,27.804421 132.347685,28.3357612 133.027599,29.6026907 C133.295443,30.1021879 133.81085,31.0630986 134.342656,32.0552086 L134.588428,32.5137542 C135.283311,33.8103666 135.945423,35.0471482 136.057831,35.2620402 L136.071856,35.2891587 C137.716807,34.013005 138.775425,32.0202961 138.775425,29.7798529 C138.775425,28.9408946 138.629207,28.137808 138.35578,27.392409 Z M125.212251,27.4047079 C124.94321,28.1438111 124.798454,28.9486546 124.798454,29.7798529 C124.798454,31.9784214 125.820518,33.9402368 127.414293,35.2175617 C127.863182,34.3774321 129.818115,30.7442889 130.427844,29.6032764 C131.107757,28.3357612 130.367895,27.805153 129.363378,27.7462942 C128.43197,27.6916814 126.912765,27.440726 125.212251,27.4047079 Z M157.314395,31.7833966 C157.310885,31.8877612 157.316734,32.1404619 157.324454,32.2971143 L157.330479,32.392776 L157.352411,32.7762371 L157.352411,33.0738989 C157.353873,33.1150415 157.35826,33.2782943 157.361184,33.3181192 C157.486932,33.3862022 157.600982,33.4958671 157.815922,33.5774202 C157.922296,33.6187093 158.057456,33.6801762 158.176989,33.7167296 L158.289668,33.7433085 L158.289668,33.1949841 C158.29113,33.1090873 158.290318,33.0525711 158.288693,33.005561 L158.282845,32.8731747 C158.281653,32.8412598 158.280751,32.8047368 158.28057,32.7577169 L158.280895,32.6785782 L158.287015,32.5262361 C158.292755,32.4186915 158.300878,32.3039021 158.305752,32.2101964 C158.311601,32.1405029 158.296979,31.9254192 158.298441,31.8708063 C158.118593,31.8216109 158.115669,31.8747596 157.758897,31.8339097 C157.562965,31.8126796 157.479621,31.7904245 157.314395,31.7833966 Z M137.636387,28.4237567 C138.051646,30.7230587 137.370271,32.3734492 136.307267,33.7005553 C136.307267,33.7005553 134.150552,29.6329986 133.913679,29.1903859 C133.678268,28.7485053 133.913679,28.7192222 134.178334,28.6899392 C134.270334,28.6899392 134.950853,28.6384063 135.684183,28.5806894 L136.086199,28.5488667 C136.887827,28.4850851 137.636387,28.4237567 137.636387,28.4237567 Z M125.819055,28.4237567 C125.819055,28.4237567 126.567953,28.4850851 127.369607,28.5488667 L127.771608,28.5806894 C128.504852,28.6384063 129.184933,28.6899392 129.275647,28.6899392 C129.540301,28.7192222 129.778637,28.7485053 129.540301,29.1903859 C129.30489,29.6329986 127.148176,33.7005553 127.148176,33.7005553 C126.085172,32.3741813 125.405259,30.7230587 125.819055,28.4237567 Z M9.72407635,23.6260281 L6.45054962,33.5876693 L13.2207316,33.5876693 L9.72407635,23.6260281 Z M156.491188,29.0691542 C155.568553,29.4269926 155.463276,31.2482495 156.890363,31.5208744 C157.508864,31.6375672 157.694561,31.626586 157.883182,31.6475234 C158.238492,31.6866162 158.628894,31.6507445 158.735633,31.8040411 C158.925716,32.0787157 158.66691,32.1302538 158.538239,32.2687625 C158.497298,32.3744741 158.497298,32.421327 158.4856,32.5686205 C158.46513,32.808302 158.459281,33.0459336 158.454894,33.2673132 C159.997493,33.1134309 160.449307,30.9114949 158.536776,30.5027041 C158.267735,30.4447237 158.120055,30.4110482 158.036711,30.4007992 C157.631896,30.3489682 157.464492,30.3490937 157.173548,30.3335908 L157.01611,30.3242241 L156.770464,29.7524733 L156.491188,29.0691542 Z M77.0221886,28.2749859 C76.2677041,28.2728027 75.5747774,28.5476238 75.0713491,29.0492418 C74.5414554,29.5764711 74.2421741,30.3462262 74.2007544,31.2859566 L74.1957874,31.5243883 L74.1957874,33.1197268 L79.8575002,33.1197268 L79.8575002,31.5303913 C79.8523826,29.4378273 78.8453798,28.2811484 77.0221886,28.2749859 Z M157.014648,27.9837794 L156.562835,28.7114622 L156.858195,29.4329956 L157.174025,30.1394483 L158.289668,30.2435494 L158.288206,28.0829024 L157.014648,27.9837794 Z M155.366772,23.5225126 C153.511267,23.8296914 152.951252,27.2645886 156.763153,27.7565432 C156.986866,27.7861191 157.421134,27.8167198 157.675553,27.8408783 C158.070341,27.8790926 158.256038,27.8777749 158.4856,27.921553 C158.650826,27.9517145 159.082169,28.5751498 158.487062,28.6378155 C158.487062,28.6378155 158.402997,29.2145685 158.52969,29.8734596 L158.560171,30.0157276 L158.682911,30.0131337 C160.376883,29.9156306 161.031186,27.2846679 158.694692,26.7136288 L158.541346,26.6696311 L158.380323,26.6229979 L158.179319,26.5767971 C157.972467,26.5332912 157.747931,26.4979594 157.504478,26.4716047 C157.195958,26.4484711 156.904984,26.3653074 156.672498,26.3183081 C154.973446,25.9756969 155.200084,25.2425967 155.30536,24.8986677 C155.590485,25.0051115 155.856602,25.0696805 156.140265,25.1056986 C156.475104,25.1474269 156.833338,25.1587009 157.146244,25.0198994 C156.866968,24.7791931 156.18413,24.6708459 155.977963,24.4815312 C155.977963,24.4815312 156.347894,24.4333607 156.966396,24.5056897 C157.280765,24.5422935 157.66678,24.3607388 157.66678,24.3607388 C157.437218,23.8127073 156.713439,23.2987904 155.366772,23.5225126 Z M131.786209,22.8077143 C129.957715,22.8077143 128.293261,23.5110128 127.048955,24.6592881 L126.845505,24.8547432 C126.269407,25.4316186 125.792736,26.109081 125.444737,26.8582869 L130.132484,26.861508 C130.597457,26.861508 130.973237,26.7265133 131.189639,26.5044017 C131.470378,26.2193316 131.489386,25.7931173 131.107757,25.3283959 C130.427844,24.5030543 131.017102,23.7072884 131.727721,23.7371571 C132.436878,23.7667329 133.027599,24.5030543 132.347685,25.3283959 C131.966057,25.7931173 131.986527,26.2193316 132.264341,26.5044017 C132.483668,26.7265133 132.856524,26.861508 133.322959,26.861508 L138.136453,26.8601903 C137.762135,26.0534433 137.238675,25.329128 136.59824,24.724141 C135.345153,23.5373005 133.650487,22.8077143 131.786209,22.8077143 Z M156.986866,23.1377339 C156.989791,23.2151874 156.954699,23.3122606 157.043891,23.4595541 C157.043891,23.4595541 157.533722,23.6999677 157.748662,24.1084657 C157.874409,24.3510754 157.909502,24.500858 157.909502,24.500858 C157.909502,24.500858 157.8013,24.5892927 157.486932,24.6367312 C157.667876,24.6951508 157.826614,24.7643594 157.974866,24.8092722 L158.120055,24.844787 L158.298441,25.0382013 C158.176898,25.0522937 157.873998,25.0147085 157.522961,24.9170102 L157.369957,24.8714345 L157.431369,25.0578209 C157.264681,25.1928156 157.195958,25.2278088 156.913758,25.2557741 C156.904984,25.4937351 156.912661,25.7471796 156.938021,25.9792932 L156.96932,26.2029331 L158.345231,26.4352938 L158.395303,26.396796 C158.494672,26.3026746 158.585446,26.1201458 158.596726,26.1074705 C158.734902,25.9607077 158.944325,25.7411194 159.276261,25.4069335 L159.650934,25.0330013 C159.837293,24.8484565 160.051228,24.6385248 160.29724,24.3995388 C160.671558,24.0370151 160.083762,23.5370077 159.691898,23.800262 C159.494504,23.9323284 158.900859,24.4670362 158.663986,24.5818256 C158.586908,24.6196634 158.569653,24.1520757 158.567159,23.8132582 L158.567189,23.6134166 C158.567496,23.5717053 158.567935,23.5374857 158.568297,23.513694 L158.568944,23.4765383 C158.57918,23.3810757 158.27066,23.1823904 157.944594,23.0487135 C157.914985,23.0367441 157.878796,22.9962786 157.821222,22.9597458 L157.755973,22.9257248 L157.657614,22.893459 C157.213225,22.7481423 156.974584,22.6866388 156.986866,23.1377339 Z M129.954098,24.0614664 C129.600251,25.2995522 130.338651,25.3878404 130.338651,25.9484637 L127.118933,25.9484637 C127.82809,25.0043794 128.863312,24.2970483 129.954098,24.0614664 Z M133.499883,24.0611736 C134.593593,24.2970483 135.525001,25.1390813 136.33651,25.9483173 L133.118254,25.9483173 C133.118254,25.3872548 133.855192,25.2995522 133.499883,24.0611736 Z M156.934228,23.8406725 C156.934228,23.8406725 156.874279,24.0116853 156.755842,24.026034 C156.64033,24.0392114 156.565759,23.9894302 156.486801,23.9402348 C156.27771,23.809779 156.146113,23.7866454 156.146113,23.7866454 C156.146113,23.7866454 156.568683,23.6414016 156.934228,23.8406725 Z" id="Global-/-Logos-/-Primary-/-Alt-2"></path>
                </g>
            </g>
        </g>
    </g>
</svg>