<svg xmlns="http://www.w3.org/2000/svg" width="50" height="50" viewBox="0 0 50 50">
    <g fill="none" fill-rule="evenodd">
        <g fill-rule="nonzero">
            <g>
                <path fill="#009DE1" d="M38.487 47.876h.443v-.936h.357c.167-.009.334.016.492.074.177.142.265.367.233.591v.333h.419c-.01-.045-.01-.091 0-.136v-.382c-.007-.143-.06-.28-.148-.393-.102-.14-.258-.23-.43-.247.126-.014.248-.056.356-.123.172-.102.272-.292.258-.492.025-.277-.135-.538-.393-.64-.222-.075-.455-.109-.689-.099h-.886l-.012 2.45zm1.23-1.367c-.142.026-.288.026-.43 0h-.394v-.8h.381c.186-.016.373.018.541.099.12.082.182.226.16.37.01.173-.094.333-.258.393m1.292-1.514c-.658-.656-1.645-.852-2.503-.497-.858.356-1.419 1.192-1.421 2.122 0 1.271 1.03 2.302 2.3 2.302 1.27 0 2.3-1.03 2.3-2.302.008-.612-.236-1.2-.676-1.625m-.234.221c.382.365.592.875.578 1.404.059.743-.304 1.456-.94 1.846-.634.39-1.434.39-2.069 0s-.998-1.103-.94-1.846c-.008-.803.472-1.532 1.213-1.84.74-.309 1.595-.136 2.158.436" transform="translate(-46 -37) translate(46 37)"/>
                <path fill="#FFF" d="M27.638 20.903c-.625.084-1.169.471-1.452 1.036-.283.564-.269 1.232.038 1.784l6.15 11.436c4.547-3.576 6.254-9.688 4.219-15.105l-8.955.85zm5.142 11.265l-4.711-9.012c-.11-.283-.074-.492.418-.517l6.716-.628c.228.906.34 1.837.332 2.77-.01 2.712-.986 5.332-2.755 7.387zM15.953 35.147l6.089-11.437c.307-.553.32-1.223.034-1.788-.286-.565-.833-.951-1.461-1.03l-8.893-.85c-.56 1.496-.847 3.08-.849 4.678-.002 4.073 1.873 7.92 5.08 10.427zM13.05 21.999l6.729.628c.492 0 .516.234.406.517l-4.711 9.024c-1.761-2.059-2.733-4.677-2.743-7.387-.006-.937.102-1.87.32-2.782zM31.415 35.787L31.402 35.787 31.415 35.787zM36.519 20.029L36.519 20.029 36.531 20.029zM23.309 26.135l-6.458 9.652c4.416 2.905 10.135 2.905 14.551 0l-6.445-9.652c-.168-.297-.483-.48-.824-.48-.341 0-.656.183-.824.48zm5.461 9.012c-2.957 1.312-6.33 1.312-9.287 0l4.453-6.82c.045-.065.118-.106.197-.111.076.005.144.046.184.11l4.453 6.82zM23.518 17.641c0-.75-.086-.997-.714-1.81-.532-.687-.45-1.669.19-2.258s1.625-.589 2.265 0c.64.59.722 1.57.19 2.258-.615.813-.738 1.06-.701 1.81.037.751.615 1.44 1.956 1.465h9.421c-2.179-4.661-6.856-7.64-11.998-7.64-5.142 0-9.82 2.979-12 7.64h9.435c1.329-.025 1.931-.812 1.956-1.465zm3.272-.628c.85-.886 1.053-2.212.504-3.311 2.142.613 4.055 1.847 5.498 3.545H26.84c-.11.012-.16-.11-.05-.234zm-5.375.283h-6.003c1.45-1.724 3.382-2.976 5.547-3.594-.51 1.088-.311 2.379.505 3.262.091.014.155.099.141.19-.013.093-.099.156-.19.142z" transform="translate(-46 -37) translate(46 37)"/>
                <path fill="#009DE1" d="M48.18 13.948H34.772V.529H13.42v13.419H0v21.457h13.42v13.419h21.352V35.405H48.18V13.948zm-24.047-2.462c5.142 0 9.818 2.981 11.992 7.645h-9.421c-1.341 0-1.932-.813-1.956-1.465-.025-.653.086-.997.701-1.81.532-.688.45-1.67-.19-2.258-.64-.589-1.624-.589-2.264 0-.64.589-.723 1.57-.19 2.258.627.813.75 1.059.713 1.81-.037.75-.627 1.44-1.956 1.465h-9.434c2.171-4.675 6.854-7.667 12.005-7.67v.025zm7.27 24.3c-4.417 2.906-10.136 2.906-14.552 0l6.458-9.65c.168-.298.483-.481.824-.481.341 0 .656.183.824.48l6.445 9.652zM10.885 24.782c.001-1.597.288-3.182.848-4.678l8.881.862c.628.08 1.175.466 1.46 1.03.287.566.274 1.235-.033 1.79L15.953 35.22c-3.206-2.512-5.076-6.364-5.067-10.44zM32.3 35.208l-6.15-11.436c-.307-.552-.32-1.22-.038-1.784.283-.564.827-.952 1.453-1.035l8.88-.862c2.035 5.417.328 11.53-4.219 15.105l.074.012z" transform="translate(-46 -37) translate(46 37)"/>
                <path fill="#009DE1" d="M20.185 23.144c.11-.283.086-.492-.406-.517l-6.729-.628c-.217.911-.325 1.845-.32 2.782.01 2.71.983 5.328 2.744 7.387l4.71-9.024zM20.96 13.702c-2.166.618-4.098 1.87-5.548 3.594h5.953c.053-.027.086-.082.086-.141 0-.06-.033-.114-.086-.142-.804-.914-.966-2.23-.406-3.311zM28.487 22.627c-.492 0-.529.234-.418.517l4.71 9.024c1.77-2.055 2.747-4.675 2.756-7.387.003-.917-.108-1.831-.332-2.72l-6.716.566zM32.792 17.296c-1.437-1.716-3.35-2.967-5.498-3.594.525 1.086.325 2.385-.504 3.262-.111.123 0 .246 0 .283l6.002.05zM23.936 28.327l-4.453 6.82c2.957 1.312 6.33 1.312 9.287 0l-4.453-6.82c-.04-.065-.108-.106-.184-.111-.08.005-.152.046-.197.11z" transform="translate(-46 -37) translate(46 37)"/>
            </g>
        </g>
    </g>
</svg>
