<?xml version="1.0" encoding="UTF-8"?>
<svg width="48px" height="48px" viewBox="0 0 48 48" version="1.1" xmlns="http://www.w3.org/2000/svg" xmlns:xlink="http://www.w3.org/1999/xlink">
    <title>Cheap</title>
    <defs>
        <linearGradient x1="50%" y1="0%" x2="50%" y2="100%" id="linearGradient-1">
            <stop stop-color="#A5A5A5" offset="0%"></stop>
            <stop stop-color="#A5A5A5" offset="5.51118819%"></stop>
            <stop stop-color="#A4A4A4" offset="13.3333%"></stop>
            <stop stop-color="#A2A2A2" offset="20%"></stop>
            <stop stop-color="#A0A0A0" offset="26.6667%"></stop>
            <stop stop-color="#9E9E9E" offset="33.3333%"></stop>
            <stop stop-color="#9A9A9A" offset="40%"></stop>
            <stop stop-color="#979797" offset="46.6667%"></stop>
            <stop stop-color="#939393" offset="53.3333%"></stop>
            <stop stop-color="#909090" offset="60%"></stop>
            <stop stop-color="#8C8C8C" offset="66.6667%"></stop>
            <stop stop-color="#8A8A8A" offset="73.3333%"></stop>
            <stop stop-color="#888888" offset="80%"></stop>
            <stop stop-color="#868686" offset="86.6667%"></stop>
            <stop stop-color="#858585" offset="100%"></stop>
        </linearGradient>
        <path d="M24,48 C10.7668269,48 0,37.2331731 0,24 C0,10.7668269 10.7668269,0 24,0 C37.2331731,0 48,10.7668269 48,24 C48,37.2331731 37.2331731,48 24,48 Z M25.8461538,12.9230769 L25.8461538,15.1153846 C27.9807692,15.8870215 29.5384615,17.9206708 29.5384615,20.3076923 L29.5384615,20.3076923 L25.8461538,20.3076923 C25.8461538,19.2620215 25.0456708,18.4615385 24,18.4615385 C22.9543292,18.4615385 22.1538462,19.2620215 22.1538462,20.3076923 C22.1538462,21.3533631 22.9543292,22.1538462 24,22.1538462 C27.0360554,22.1538462 29.5384615,24.6562523 29.5384615,27.6923077 C29.5384615,30.0793292 27.9807692,32.1129785 25.8461538,32.8846154 L25.8461538,32.8846154 L25.8461538,35.0769231 L22.1538462,35.0769231 L22.1538462,32.8846154 C20.0192308,32.1129785 18.4615385,30.0793292 18.4615385,27.6923077 L18.4615385,27.6923077 L22.1538462,27.6923077 C22.1538462,28.7379785 22.9543292,29.5384615 24,29.5384615 C25.0456708,29.5384615 25.8461538,28.7379785 25.8461538,27.6923077 C25.8461538,26.6466369 25.0456708,25.8461538 24,25.8461538 C20.9639446,25.8461538 18.4615385,23.3437477 18.4615385,20.3076923 C18.4615385,17.9206708 20.0192308,15.8870215 22.1538462,15.1153846 L22.1538462,15.1153846 L22.1538462,12.9230769 L25.8461538,12.9230769 Z M24,44.3076923 C35.2355769,44.3076923 44.3076923,35.2355769 44.3076923,24 C44.3076923,12.7644231 35.2355769,3.69230769 24,3.69230769 C12.7644231,3.69230769 3.69230769,12.7644231 3.69230769,24 C3.69230769,35.2355769 12.7644231,44.3076923 24,44.3076923 Z" id="path-2"></path>
    </defs>
    <g id="Cheap" stroke="none" stroke-width="1" fill="none" fill-rule="evenodd">
        <mask id="mask-3" fill="white">
            <use xlink:href="#path-2"></use>
        </mask>
        <use id="Shape" fill="url(#linearGradient-1)" xlink:href="#path-2"></use>
    </g>
</svg>