<svg xmlns="http://www.w3.org/2000/svg" width="40" height="40" viewBox="0 0 40 40">
  <path fill="#FFF" fill-rule="evenodd" d="M32.3946,11.2372 L33.1456,10.63671 C33.2554,10.549 33.3647,10.45946 33.4737,10.36809 L33.0231,9.22826 C32.8924,9.25181 32.7602,9.27324 32.6267,9.29238 L31.5223,9.45067 L30.8075,8.59416 C29.9821,7.60531 28.5486,7 26.9438,7 C23.9336,7 21.4871,9.44849 21.4871,12.45676 C21.4871,12.61494 21.511,12.7617 21.5682,13.01841 C21.5726,13.03823 21.5781,13.06179 21.5843,13.0887 C21.637,13.31573 21.745,13.78126 21.745,14.25646 L21.745,16.3408 L19.6625,16.2548 C14.1935,16.0288 9.30061,13.78642 5.55575,10.44198 C5.64647,12.11447 6.50883,13.58234 8.20588,15.0666 L13.8612,20.013 L6.49519,18.5329 C6.49185,18.5322 6.4885,18.5315 6.48515,18.5309 C7.26309,19.6443 8.47221,20.4617 9.90935,20.7932 L16.821,22.3878 L10.09443,24.6387 C10.01074,24.6667 9.92879,24.6925 9.84847,24.7163 C10.74067,25.4463 11.84342,25.8832 13.0562,25.8832 L19.4,25.8832 L14.2032,29.5216 C12.8394,30.4764 11.26808,31.3097 9.57879,31.9179 C10.79419,32.1744 12.0415,32.3111 13.3111,32.3111 C25.6026,32.3111 32.3946,22.1382 32.3946,13.22763 L32.3946,11.2372 Z M5.74785,32.8466 C5.08416,32.5861 4.43426,32.2944 3.7997,31.9748 C3.18494,31.6651 2.584575,31.3291 2,30.9697 L3.7997,30.9697 C4.53605,30.9697 5.27255,30.9072 6.00088,30.7905 C7.49581,30.551 8.95632,30.0831 10.31053,29.4584 C11.29049,29.0064 12.2148,28.4722 13.0562,27.8832 C12.0275,27.8832 11.07189,27.664 10.21183,27.2781 C9.07687,26.7688 8.1083,25.9692 7.3578,24.9996 C7.06215,24.6176 6.80035,24.2093 6.57554,23.782 C6.39873,23.4459 6.24481,23.0981 6.11531,22.742 C6.41541,22.742 6.71653,22.8303 6.96641,22.9036 C7.14362,22.9556 7.29507,23 7.4021,23 C7.77841,23 8.09398,23 8.40811,22.97 C8.73744,22.9385 9.06521,22.8741 9.45976,22.742 C8.98403,22.6323 8.52391,22.4808 8.08463,22.2914 C7.97557,22.2443 7.86781,22.195 7.7614,22.1433 C7.63981,22.0843 7.52001,22.0223 7.4021,21.9574 C6.94192,21.704 6.51064,21.4066 6.11531,21.07 C5.99138,20.9645 5.87098,20.8551 5.75433,20.742 C4.93523,19.9482 4.30105,18.9725 3.92696,17.8688 C3.72142,17.2623 3.5944,16.6172 3.55836,15.9423 C3.55131,15.8104 3.54774,15.6774 3.54774,15.5432 C4.20905,15.8729 4.87035,16.0973 5.59936,16.284 C6.00451,16.3878 6.43058,16.4799 6.88918,16.5721 C5.90928,15.715 5.10489,14.79946 4.53106,13.79786 C3.89994,12.69624 3.54774,11.49055 3.54774,10.14414 C3.54774,9.61835 3.59081,9.09305 3.69434,8.58545 C3.84419,7.85079 4.12069,7.15318 4.57657,6.54474 C5.01394,7.07578 5.47788,7.58786 5.96654,8.07821 C9.04922,11.17151 13.1159,13.39998 17.7032,14.06653 C18.3732,14.16388 19.0543,14.22791 19.745,14.25646 C19.745,14.02604 19.693,13.79499 19.6356,13.54052 C19.5653,13.22854 19.4871,12.88132 19.4871,12.45676 C19.4871,12.38461 19.4881,12.3127 19.4902,12.24103 C19.6046,8.22812 22.9007,5 26.9438,5 C29.0015,5 31.0562,5.770873 32.3429,7.31262 C32.8291,7.24294 33.2964,7.13583 33.7449,7.00141 C34.957,6.6382 36.032,6.07556 36.9712,5.512915 C36.8314,6.00346 36.6341,6.4559 36.3898,6.87534 C35.969,7.59785 35.4087,8.22243 34.7628,8.77516 C34.408,9.07875 34.0273,9.36067 33.6297,9.62523 C33.9115,9.57808 34.1848,9.53103 34.4527,9.4809 C35.5698,9.27182 36.5929,9.00907 37.7478,8.46151 C37.8312,8.422 37.9152,8.38101 38,8.33844 C37.2386,9.47719 36.3425,10.47305 35.4095,11.3296 C35.0745,11.63725 34.7346,11.92693 34.3946,12.1988 L34.3946,13.22763 C34.3946,22.997 26.9378,34.3111 13.3111,34.3111 C10.66084,34.3111 8.11648,33.7767 5.74785,32.8466 Z"/>
</svg>
