<svg xmlns="http://www.w3.org/2000/svg" width="40" height="40" viewBox="0 0 40 40">
  <path fill="#FFF" fill-rule="evenodd" d="M20.3202924,3.99901036 L20.7008124,4.00072551 C23.3809757,4.01534942 32.9525675,4.11771677 35.6268532,4.83428819 C37.3468532,5.29428819 38.7028532,6.65028819 39.1628532,8.37028819 C39.4879643,9.58362153 39.6866433,11.6118067 39.8080583,13.6375721 L39.8406883,14.2155904 C39.9733428,16.7139325 39.9947386,19.089253 39.9981896,19.7904921 L39.9981896,20.2060843 C39.9916859,21.5276503 39.9214458,28.7951771 39.1628532,31.6262882 C38.7028532,33.3462882 37.3488532,34.7022882 35.6268532,35.1622882 C34.2401866,35.5338437 30.9991001,35.7402635 27.8258765,35.8549411 L27.1476393,35.8781375 C24.2191838,35.9728017 21.4676339,35.992882 20.4320768,35.9971414 L20.224264,35.9978703 C20.194939,35.9979539 20.1683275,35.9980207 20.1445172,35.9980742 L19.8531892,35.9980742 C19.8293789,35.9980207 19.8027674,35.9979539 19.7734424,35.9978703 L19.5656296,35.9971414 C18.4902434,35.9927181 15.5643265,35.9712336 12.5114709,35.8668803 L11.8316696,35.8422999 L11.8316696,35.8422999 L11.1518924,35.8148307 C8.32537577,35.694135 5.60894846,35.4940342 4.37085322,35.1622882 C2.65085322,34.7022882 1.29485322,33.3462882 0.834853224,31.6262882 C0.107223594,28.9107326 0.0129012346,22.1135269 0.000674262054,20.3969201 L-0.000806990804,20.1326897 C-0.000891937205,20.1107601 -0.000955647005,20.0913952 -0.00100342936,20.0746833 L-0.00100342936,19.9218931 C-0.000955647005,19.9051812 -0.000891937205,19.8858163 -0.000806990804,19.8638867 L0.000674262054,19.5996563 C0.0129012346,17.8830495 0.107223594,11.0858437 0.834853224,8.37028819 C1.29485322,6.65028819 2.65085322,5.29428819 4.37085322,4.83428819 C5.65847227,4.48927232 8.54505529,4.28664395 11.4915152,4.16763999 L12.1718299,4.14163524 C15.1183947,4.03514886 18.0064451,4.00776665 19.296894,4.00072551 L19.6774141,3.99901036 C19.7120787,3.99889 19.7441174,3.9987897 19.7734424,3.99870612 L20.224264,3.99870612 C20.2535891,3.9987897 20.2856277,3.99889 20.3202924,3.99901036 Z M20.3037907,5.99896444 L19.6939157,5.99896444 C19.6274532,5.99919069 19.5508032,5.99949319 19.4646532,5.99989819 C19.1200532,6.00151819 18.6232532,6.00475819 18.0171532,6.01123819 C16.8039532,6.02420819 15.1562532,6.05014819 13.4142532,6.10190819 C11.6689532,6.15375819 9.84507322,6.23108819 8.27450322,6.34567819 C6.64772322,6.46435819 5.46063322,6.61283819 4.88849322,6.76613819 C3.85941322,7.04135819 3.04216322,7.85793819 2.76695322,8.88700819 C2.41631322,10.1956182 2.20798322,12.8756982 2.10163322,15.4372882 C2.05030322,16.6736882 2.02455322,17.8165882 2.01167322,18.6509882 C2.00524322,19.0677882 2.00203322,19.4065882 2.00044322,19.6402882 L1.99976915,19.7482215 L1.99976915,19.7482215 L1.99904322,19.9084882 L1.99904322,19.9084882 L1.99887322,19.9768882 L1.99887322,20.0196882 L1.99904322,20.0880882 L1.99976915,20.2483549 C1.99995433,20.2813326 2.00017656,20.3173549 2.00044322,20.3562882 C2.00203322,20.5899882 2.00524322,20.9287882 2.01167322,21.3455882 C2.02455322,22.1799882 2.05030322,23.3228882 2.10163322,24.5592882 C2.20798322,27.1208882 2.41606322,29.8000882 2.76670322,31.1086882 C3.04192322,32.1376882 3.85850322,32.9549882 4.88757322,33.2301882 C5.45972322,33.3834882 6.64772322,33.5321882 8.27450322,33.6508882 C9.84507322,33.7654882 11.6689532,33.8427882 13.4142532,33.8946882 C15.1562532,33.9463882 16.8039532,33.9723882 18.0171532,33.9853882 C18.6232532,33.9917882 19.1200532,33.9950882 19.4646532,33.9966882 L19.5866673,33.9972163 L19.5866673,33.9972163 L19.7858829,33.9978976 C19.8139345,33.9979757 19.8393532,33.9980382 19.8620532,33.9980882 L20.1356532,33.9980882 L20.2118235,33.9978976 L20.2118235,33.9978976 L20.4110392,33.9972163 C20.4492782,33.9970632 20.4899782,33.9968882 20.5330532,33.9966882 C20.8776532,33.9950882 21.3744532,33.9917882 21.9805532,33.9853882 C23.1937532,33.9723882 24.8414532,33.9463882 26.5834532,33.8946882 C28.3287532,33.8427882 30.1526532,33.7654882 31.7231532,33.6508882 C33.3499532,33.5321882 34.5370532,33.3837882 35.1092532,33.2303882 L35.1106532,33.2300882 C36.1404532,32.9549882 36.9553532,32.1394882 37.2307532,31.1095882 C37.5813532,29.8009882 37.7897532,27.1208882 37.8960532,24.5592882 C37.9474532,23.3228882 37.9731532,22.1799882 37.9860532,21.3455882 C37.9924532,20.9287882 37.9956532,20.5899882 37.9972532,20.3562882 C37.9977866,20.2784215 37.9981421,20.2121993 37.9983791,20.1586882 L37.9986532,19.9084882 C37.9984532,19.8476882 37.9980532,19.7570882 37.9972532,19.6402882 C37.9956532,19.4065882 37.9924532,19.0677882 37.9860532,18.6509882 C37.9731532,17.8165882 37.9474532,16.6736882 37.8960532,15.4372882 L37.8801686,15.0707016 L37.8801686,15.0707016 L37.8441282,14.3365533 C37.7273083,12.1379502 37.5312675,10.0086739 37.2307532,8.88700819 C36.9555532,7.85793819 36.1392532,7.04160819 35.1101532,6.76638819 C34.5379532,6.61307819 33.3499532,6.46435819 31.7231532,6.34567819 C30.1526532,6.23108819 28.3287532,6.15375819 26.5834532,6.10190819 C24.8414532,6.05014819 23.1937532,6.02420819 21.9805532,6.01123819 C21.3744532,6.00475819 20.8776532,6.00151819 20.5330532,5.99989819 C20.4469032,5.99949319 20.3702532,5.99919069 20.3037907,5.99896444 Z M15.9988532,13.0700682 L27.9988532,19.9980882 L15.9988532,26.9260882 L15.9988532,13.0700682 Z"/>
</svg>
