<?xml version="1.0" encoding="UTF-8"?>
<svg width="45px" height="40px" viewBox="0 0 45 40" version="1.1" xmlns="http://www.w3.org/2000/svg" xmlns:xlink="http://www.w3.org/1999/xlink">
    <title>New Member</title>
    <defs>
        <linearGradient x1="50%" y1="0%" x2="50%" y2="100%" id="linearGradient-1">
            <stop stop-color="#A5A5A5" offset="0%"></stop>
            <stop stop-color="#A5A5A5" offset="6.66667%"></stop>
            <stop stop-color="#A4A4A4" offset="13.3333%"></stop>
            <stop stop-color="#A2A2A2" offset="20%"></stop>
            <stop stop-color="#A0A0A0" offset="26.6667%"></stop>
            <stop stop-color="#9E9E9E" offset="33.3333%"></stop>
            <stop stop-color="#9A9A9A" offset="40%"></stop>
            <stop stop-color="#979797" offset="46.6667%"></stop>
            <stop stop-color="#939393" offset="53.3333%"></stop>
            <stop stop-color="#909090" offset="60%"></stop>
            <stop stop-color="#8C8C8C" offset="66.6667%"></stop>
            <stop stop-color="#8A8A8A" offset="73.3333%"></stop>
            <stop stop-color="#888888" offset="80%"></stop>
            <stop stop-color="#868686" offset="86.6667%"></stop>
            <stop stop-color="#858585" offset="93.3333%"></stop>
            <stop stop-color="#858585" offset="100%"></stop>
        </linearGradient>
    </defs>
    <g id="Page-1" stroke="none" stroke-width="1" fill="none" fill-rule="evenodd">
        <g id="Group" transform="translate(-0.000000, -5.000000)" fill="url(#linearGradient-1)" fill-rule="nonzero">
            <path d="M20.3076923,5.53846154 C18.2884615,5.53846154 16.6153846,7.21153846 16.6153846,9.23076923 L16.6153846,11.0769231 L0,11.0769231 L0,44.3076923 L44.3076923,44.3076923 L44.3076923,11.0769231 L27.6923077,11.0769231 L27.6923077,9.23076923 C27.6923077,7.21153846 26.0192308,5.53846154 24,5.53846154 L20.3076923,5.53846154 Z M20.3076923,9.23076923 L24,9.23076923 L24,12.9230769 L20.3076923,12.9230769 L20.3076923,9.23076923 Z M3.69230769,14.7692308 L16.6153846,14.7692308 L16.6153846,16.6153846 L27.6923077,16.6153846 L27.6923077,14.7692308 L40.6153846,14.7692308 L40.6153846,28.3787337 L40.6153846,40.6153846 L3.69230769,40.6153846 L3.69230769,14.7692308 Z M22.1538462,18.4615385 C18.0937495,18.4615385 14.7692308,21.7860572 14.7692308,25.8461538 C14.7692308,27.9086548 15.6346154,29.7764418 17.0120197,31.1177889 C14.5456726,32.7836548 12.9230769,35.5961538 12.9230769,38.7692308 L16.6153846,38.7692308 C16.6153846,35.6899034 19.0745188,33.2307692 22.1538462,33.2307692 C25.2331735,33.2307692 27.6923077,35.6899034 27.6923077,38.7692308 L31.3846154,38.7692308 C31.3846154,35.5961538 29.7620197,32.7836548 27.2956726,31.1177889 C28.6730769,29.7764418 29.5384615,27.9086548 29.5384615,25.8461538 C29.5384615,21.7860572 26.2139428,18.4615385 22.1538462,18.4615385 Z M22.1538462,22.1538462 C24.2163471,22.1538462 25.8461538,23.7836548 25.8461538,25.8461538 C25.8461538,27.9086548 24.2163471,29.5384615 22.1538462,29.5384615 C20.0913471,29.5384615 18.4615385,27.9086548 18.4615385,25.8461538 C18.4615385,23.7836548 20.0913471,22.1538462 22.1538462,22.1538462 Z" id="New-Member"></path>
        </g>
    </g>
</svg>