<svg width="64" height="64" viewBox="0 0 64 64" fill="none" xmlns="http://www.w3.org/2000/svg">
<g clip-path="url(#clip0)">
<g filter="url(#filter0_d)">
<rect y="12" width="64" height="40" rx="8" fill="#286CE2"/>
<rect y="12" width="64" height="40" rx="8" fill="url(#paint0_linear)" fill-opacity="0.3" style="mix-blend-mode:soft-light"/>
</g>
<path fill-rule="evenodd" clip-rule="evenodd" d="M36.7757 26.8345L23.9772 19.6673C23.8929 19.6201 23.8074 19.5797 23.7211 19.5459L33.5022 30.5008L36.7757 26.8345ZM38.5632 27.8354L34.8428 32.0023L38.5605 36.1662L42.8839 33.7451C44.2476 32.9814 44.2476 31.0187 42.8839 30.255L38.5632 27.8354ZM32.1616 32.0022L21.5116 20.0741C21.1977 20.4205 21 20.8824 21 21.4123V42.5878C21 43.1187 21.1985 43.5815 21.5134 43.9281L32.1616 32.0022ZM23.7269 44.4519L33.5022 33.5037L36.773 37.1671L23.9772 44.3328C23.8948 44.379 23.8112 44.4186 23.7269 44.4519Z" fill="white"/>
</g>
<defs>
<filter id="filter0_d" x="-8" y="8" width="80" height="56" filterUnits="userSpaceOnUse" color-interpolation-filters="sRGB">
<feFlood flood-opacity="0" result="BackgroundImageFix"/>
<feColorMatrix in="SourceAlpha" type="matrix" values="0 0 0 0 0 0 0 0 0 0 0 0 0 0 0 0 0 0 127 0"/>
<feOffset dy="4"/>
<feGaussianBlur stdDeviation="4"/>
<feColorMatrix type="matrix" values="0 0 0 0 0.156863 0 0 0 0 0.423529 0 0 0 0 0.886275 0 0 0 0.15 0"/>
<feBlend mode="normal" in2="BackgroundImageFix" result="effect1_dropShadow"/>
<feBlend mode="normal" in="SourceGraphic" in2="effect1_dropShadow" result="shape"/>
</filter>
<linearGradient id="paint0_linear" x1="32" y1="12" x2="32" y2="52" gradientUnits="userSpaceOnUse">
<stop stop-color="white"/>
<stop offset="1"/>
</linearGradient>
<clipPath id="clip0">
<rect width="64" height="64" fill="white"/>
</clipPath>
</defs>
</svg>
