<svg xmlns="http://www.w3.org/2000/svg" xmlns:xlink="http://www.w3.org/1999/xlink" width="32" height="32" viewBox="0 0 32 32">
  <defs>
    <path id="sydney_clear-a" d="M19.1528,4.0394 L14.5807,4.43 C13.0462,5.7842 10.8985,6.6258 8.5205,6.6258 C4.2762,6.6258 0.7641,3.9452 0.1658,0.4539 C2.1126,2.5665 5.13,3.9246 8.5205,3.9246 C11.9109,3.9246 14.9283,2.5665 16.8751,0.4539 C16.783,0.9911 16.4975,1.7332 16.2753,2.2253 L19.1528,4.0394 Z"/>
    <linearGradient id="sydney_clear-b" x1="100.001%" x2="100.001%" y1="100.002%" y2="-.002%">
      <stop offset="0%" stop-color="#3DE2F6"/>
      <stop offset="100%" stop-color="#FFF"/>
    </linearGradient>
  </defs>
  <g fill="none" fill-rule="evenodd" transform="translate(3 5)">
    <path fill="#2453A6" d="M13.489,1.95399252e-14 C7.2418,1.95399252e-14 2.1775,4.981 2.1775,11.1256 C2.1775,12.9897 2.646,14.7453 3.4698,16.2887 L0.3138,18.2643 L0.3141,18.2654 C0.1256,18.3845 0,18.5914 0,18.828 C0,19.1725 0.2654,19.4529 0.6054,19.4903 L0.6067,19.4958 L6.584,19.935 C8.4946,21.3858 10.8884,22.2512 13.489,22.2512 C13.4927,22.2512 13.4964,22.2512 13.5,22.2512 C13.5038,22.2512 13.5074,22.2512 13.5111,22.2512 C16.1116,22.2512 18.5055,21.3858 20.4161,19.935 L26.3934,19.4958 L26.3947,19.4903 C26.7347,19.4529 27,19.1725 27,18.828 C27,18.5914 26.8745,18.3845 26.6859,18.2654 L26.6862,18.2643 L23.5163,16.2729 C24.3349,14.7334 24.8004,12.9834 24.8004,11.1256 C24.8004,4.981 19.7362,1.95399252e-14 13.489,1.95399252e-14 Z"/>
    <path fill="#FFF" d="M13.8927,20.8377 C13.9454,20.8331 13.9972,20.8261 14.0495,20.8207 C14.1399,20.8113 14.2306,20.8024 14.3201,20.7907 C14.3735,20.7835 14.426,20.7742 14.4792,20.7663 C14.5666,20.7533 14.6542,20.7409 14.7406,20.7256 C14.7933,20.7162 14.8451,20.7047 14.8974,20.6946 C14.9832,20.6779 15.0692,20.6617 15.154,20.6428 C15.2045,20.6316 15.254,20.6183 15.3041,20.6063 C15.3897,20.5858 15.4754,20.5655 15.5599,20.5429 C15.6074,20.53 15.6539,20.5155 15.701,20.5019 C15.7867,20.4774 15.8727,20.453 15.9573,20.4261 C16.0019,20.4119 16.0456,20.3962 16.0898,20.3814 C16.1756,20.3527 16.2613,20.3241 16.3456,20.2931 C16.3873,20.2779 16.428,20.2612 16.4692,20.2453 C16.555,20.2125 16.6406,20.1794 16.7248,20.1442 C16.7632,20.1281 16.8007,20.1109 16.8387,20.0943 C16.9243,20.0571 17.0097,20.0196 17.0936,19.9799 C17.1291,19.9632 17.1636,19.9454 17.1987,19.9281 C17.2839,19.8866 17.3686,19.8446 17.4518,19.8006 C17.4843,19.7835 17.5159,19.7654 17.548,19.7478 C17.6323,19.702 17.7162,19.6555 17.7985,19.6071 C17.8284,19.5894 17.8574,19.571 17.887,19.5531 C17.97,19.5029 18.0525,19.4521 18.1333,19.3994 C18.1606,19.3815 18.1873,19.363 18.2145,19.3447 C18.2959,19.2903 18.3765,19.2352 18.4555,19.1782 C18.4806,19.1602 18.5049,19.1415 18.5297,19.1233 C18.6092,19.0646 18.6878,19.0052 18.7645,18.9441 C18.7875,18.9258 18.8099,18.9071 18.8327,18.8885 C18.9097,18.8261 18.9856,18.7627 19.0598,18.6976 C19.0666,18.6918 19.0738,18.6861 19.0806,18.6803 L23.6526,18.2896 L20.7752,16.4755 C20.7776,16.4701 20.7795,16.4645 20.782,16.4591 C20.8325,16.3465 21.0038,16.0084 21.0478,15.8931 C21.0505,15.8859 21.0535,15.8788 21.0563,15.8715 C21.1986,15.4948 21.3062,15.105 21.3749,14.7041 C21.4342,14.3585 21.4659,14.0053 21.4659,13.6456 C21.4659,9.6524 17.6847,6.4153 13.0203,6.4153 C8.3559,6.4153 4.5747,9.6524 4.5747,13.6456 C4.5747,14.0053 4.6065,14.3585 4.6657,14.7041 C4.6807,14.7916 4.6989,14.8783 4.7174,14.9649 C4.7231,14.9907 4.7278,15.017 4.7338,15.0427 C4.7518,15.1218 4.7725,15.2 4.7936,15.2781 C4.8023,15.3106 4.8106,15.3434 4.8199,15.3758 C4.8412,15.4502 4.8646,15.5239 4.8887,15.5976 C4.9001,15.6325 4.9114,15.6677 4.9235,15.7025 C4.9482,15.7741 4.9745,15.845 5.0018,15.9157 C5.0155,15.9513 5.0295,15.9868 5.0439,16.0222 C5.0722,16.0917 5.1015,16.161 5.1322,16.2295 C5.1479,16.2645 5.1641,16.2992 5.1803,16.334 C5.2123,16.4022 5.245,16.4702 5.2793,16.5375 C5.2963,16.5708 5.3142,16.6038 5.3318,16.6368 C5.3679,16.7047 5.4042,16.7725 5.4427,16.8391 C5.4598,16.8688 5.4779,16.8979 5.4955,16.9273 C5.5367,16.9965 5.5781,17.0656 5.6218,17.1335 C5.6352,17.1542 5.6496,17.1745 5.6632,17.1951 C5.8257,17.4413 6.004,17.6786 6.1978,17.9058 C6.2085,17.9184 6.2186,17.9313 6.2293,17.9438 C6.2801,18.0024 6.333,18.0596 6.3856,18.1168 C6.413,18.1465 6.4398,18.1768 6.4677,18.2062 C6.5169,18.2578 6.5678,18.3083 6.6185,18.3587 C6.6522,18.3922 6.6853,18.4258 6.7196,18.4587 C6.7691,18.5061 6.8197,18.5525 6.8706,18.5986 C6.9084,18.6331 6.9463,18.6675 6.9849,18.7013 C7.0351,18.7452 7.0863,18.7885 7.1377,18.8313 C7.1792,18.8657 7.2208,18.8998 7.263,18.9335 C7.3143,18.9744 7.3661,19.0148 7.4185,19.0547 C7.4631,19.0886 7.5083,19.1219 7.5539,19.1551 C7.606,19.193 7.6584,19.2308 7.7116,19.2677 C7.7597,19.301 7.8084,19.3333 7.8572,19.3657 C7.9102,19.4007 7.9629,19.4358 8.0168,19.4698 C8.0686,19.5025 8.1215,19.5339 8.1741,19.5656 C8.2269,19.5973 8.2793,19.6296 8.333,19.6603 C8.3907,19.6933 8.4497,19.7247 8.5085,19.7566 C8.559,19.784 8.609,19.8122 8.6603,19.8388 C8.7452,19.8827 8.8318,19.9245 8.9187,19.966 C8.9762,19.9934 9.0342,20.02 9.0923,20.0463 C9.1737,20.0829 9.255,20.1194 9.3378,20.1538 C9.3859,20.1738 9.435,20.1921 9.4836,20.2113 C9.5541,20.2392 9.6246,20.2673 9.6962,20.2936 C9.7484,20.3127 9.8014,20.3304 9.854,20.3487 C9.9234,20.3728 9.9929,20.3967 10.0632,20.4193 C10.1177,20.4368 10.1729,20.4531 10.228,20.4696 C10.2981,20.4906 10.3683,20.5114 10.4392,20.5308 C10.4952,20.5462 10.5516,20.5607 10.608,20.5751 C10.6795,20.5933 10.7512,20.6108 10.8234,20.6274 C10.8804,20.6406 10.9375,20.6531 10.9949,20.6653 C11.0682,20.6808 11.1421,20.6952 11.2162,20.709 C11.2733,20.7196 11.3305,20.7302 11.388,20.7398 C11.4643,20.7526 11.5411,20.7639 11.6181,20.775 C11.6746,20.7831 11.731,20.7914 11.7878,20.7985 C11.8687,20.8087 11.9501,20.817 12.0317,20.825 C12.0854,20.8304 12.139,20.8365 12.1932,20.8411 C12.2837,20.8486 12.3751,20.8538 12.4666,20.8588 C12.5126,20.8614 12.5582,20.8651 12.6044,20.867 C12.7422,20.8728 12.8808,20.876 13.0203,20.876 C13.1676,20.876 13.314,20.8727 13.4594,20.8663 C13.5049,20.8643 13.5496,20.8601 13.5949,20.8576 C13.6944,20.8518 13.7941,20.8464 13.8927,20.8377 Z"/>
    <g transform="translate(4.5 14.25)">
      <mask id="sydney_clear-c" fill="#fff">
        <use xlink:href="#sydney_clear-a"/>
      </mask>
      <path fill="url(#sydney_clear-b)" d="M19.1528,4.0394 L16.2753,2.2253 C16.4975,1.7332 16.783,0.9911 16.8751,0.4539 C14.9283,2.5665 11.9109,3.9246 8.5205,3.9246 C5.13,3.9246 2.1126,2.5665 0.1658,0.4539 C0.7641,3.9452 4.2762,6.6258 8.5205,6.6258 C10.8985,6.6258 13.0462,5.7842 14.5807,4.43 L19.1528,4.0394 Z" mask="url(#sydney_clear-c)"/>
    </g>
    <path fill="#1755A8" d="M10.985 12.1192C10.985 12.8616 10.3733 13.4632 9.6184 13.4632 8.8638 13.4632 8.252 12.8616 8.252 12.1192 8.252 11.3768 8.8638 10.7751 9.6184 10.7751 10.3733 10.7751 10.985 11.3768 10.985 12.1192zM17.8271 12.1192C17.8271 12.8616 17.2153 13.4632 16.4606 13.4632 15.7058 13.4632 15.094 12.8616 15.094 12.1192 15.094 11.3768 15.7058 10.7751 16.4606 10.7751 17.2153 10.7751 17.8271 11.3768 17.8271 12.1192z"/>
    <path fill="#3EE2F7" d="M11.7009,15.1028 C11.7257,15.8238 12.326,16.4011 13.0651,16.4011 C13.8041,16.4011 14.4046,15.8238 14.4293,15.1028 L11.7009,15.1028 Z"/>
  </g>
</svg>
