<svg xmlns="http://www.w3.org/2000/svg" xmlns:xlink="http://www.w3.org/1999/xlink" width="48" height="47" xmlns:v="https://vecta.io/nano"><defs><linearGradient x1="50%" y1="100%" x2="50%" y2="3.061617e-15%" id="A"><stop stop-color="#a5a5a5" offset="0%"/><stop stop-color="#a5a5a5" offset="6.66667%"/><stop stop-color="#a4a4a4" offset="13.3333%"/><stop stop-color="#a2a2a2" offset="20%"/><stop stop-color="#a0a0a0" offset="26.6667%"/><stop stop-color="#9e9e9e" offset="33.3333%"/><stop stop-color="#9a9a9a" offset="40%"/><stop stop-color="#979797" offset="46.6667%"/><stop stop-color="#939393" offset="53.3333%"/><stop stop-color="#909090" offset="60%"/><stop stop-color="#8c8c8c" offset="66.6667%"/><stop stop-color="#8a8a8a" offset="73.3333%"/><stop stop-color="#888" offset="80%"/><stop stop-color="#868686" offset="86.6667%"/><stop stop-color="#858585" offset="93.3333%"/></linearGradient><path d="M38.116 45.9l-2.842-2.842.741-.741-4.51-4.51 2.78-2.842 4.51 4.571 2.842-2.842-4.571-4.51 2.842-2.78 4.51 4.51.741-.741L48 36.015 38.116 45.9zm-10.873-6.919l-2.842-2.842 1.297-1.297L5.375 14.456l.124-.927.68-6.301.062-.68.185-.124L0 0h5.622l4.015 4.015 5.992-.618.927-.124.68.68 19.707 19.645 1.297-1.297 2.842 2.842-13.838 13.838zM28.541 32l5.56-5.56L15.135 7.413l-4.695.556-.371.371-.556 4.695L28.541 32z" id="B"/></defs><use fill="url(#A)" fill-rule="nonzero" transform="matrix(1 0 0 -1 0 46.745614)" xlink:href="#B"/></svg>