<?xml version="1.0" encoding="UTF-8" standalone="no"?>
<!-- Created with Inkscape (http://www.inkscape.org/) -->

<svg
   xmlns:dc="http://purl.org/dc/elements/1.1/"
   xmlns:cc="http://creativecommons.org/ns#"
   xmlns:rdf="http://www.w3.org/1999/02/22-rdf-syntax-ns#"
   xmlns:svg="http://www.w3.org/2000/svg"
   xmlns="http://www.w3.org/2000/svg"
   xmlns:sodipodi="http://sodipodi.sourceforge.net/DTD/sodipodi-0.dtd"
   xmlns:inkscape="http://www.inkscape.org/namespaces/inkscape"
   width="85.830818"
   height="37.21611"
   viewBox="0 0 22.709403 9.8467623"
   version="1.1"
   id="svg280"
   inkscape:version="0.92.0 r15299"
   sodipodi:docname="cib.html">
  <defs
     id="defs274" />
  <sodipodi:namedview
     id="base"
     pagecolor="#ffffff"
     bordercolor="#666666"
     borderopacity="1.0"
     inkscape:pageopacity="0.0"
     inkscape:pageshadow="2"
     inkscape:zoom="9.4534773"
     inkscape:cx="42.418239"
     inkscape:cy="18.107428"
     inkscape:document-units="mm"
     inkscape:current-layer="layer1"
     showgrid="false"
     fit-margin-top="0"
     fit-margin-left="0"
     fit-margin-right="0"
     fit-margin-bottom="0"
     units="px"
     inkscape:window-width="1280"
     inkscape:window-height="744"
     inkscape:window-x="-4"
     inkscape:window-y="-4"
     inkscape:window-maximized="1" />
  <metadata
     id="metadata277">
    <rdf:RDF>
      <cc:Work
         rdf:about="">
        <dc:format>image/svg+xml</dc:format>
        <dc:type
           rdf:resource="http://purl.org/dc/dcmitype/StillImage" />
        <dc:title></dc:title>
      </cc:Work>
    </rdf:RDF>
  </metadata>
  <g
     inkscape:label="Layer 1"
     inkscape:groupmode="layer"
     id="layer1"
     transform="translate(-124.84827,-131.68226)">
    <g
       id="g304"
       transform="translate(0.13229199,-0.13228863)">
      <path
         d="m 126.05018,131.94722 h 8.41869 v 0.80045 h -6.41456 c -0.44132,0 -0.80116,0.35701 -0.80116,0.79869 v 6.38704 c 0,0.44062 0.35984,0.79693 0.80116,0.79693 h 6.41456 v 0.79869 h -8.41869 c -0.66393,0 -1.20191,-0.53517 -1.20191,-1.19627 v -7.18644 c 0,-0.66146 0.53798,-1.19909 1.20191,-1.19909"
         style="fill:#005bab;fill-opacity:1;fill-rule:nonzero;stroke:none;stroke-width:0.35277778"
         id="path122"
         inkscape:connector-curvature="0" />
      <path
         d="m 139.27807,132.74657 c -0.44274,0 -0.80116,0.35807 -0.80116,0.80045 v 6.38634 c 0,0.44062 0.35842,0.79692 0.80116,0.79692 0.44274,0 0.80222,-0.3563 0.80222,-0.79692 v -6.38634 c 0,-0.44238 -0.35948,-0.80045 -0.80222,-0.80045 m 3.20604,0.78705 v 0.0134 1.19592 0.4071 0.5768 0.49882 1.01918 0.50588 0.18415 0.80081 0.21555 0.18238 0.79622 c 0,0.0402 0.002,0.0776 0.008,0.11148 v 0.008 0.006 l 0.003,0.006 10e-4,0.006 v 0.005 l 0.001,0.005 0.001,0.006 7.1e-4,0.006 v 0.007 l 0.002,0.003 0.001,0.007 0.002,0.007 v 0.007 l 0.003,0.005 7e-4,0.0113 0.004,0.006 c 0.001,0.0127 0.006,0.0226 0.01,0.0356 l 0.007,0.0226 0.0102,0.0212 0.006,0.0152 c 0.004,0.008 0.005,0.0162 0.01,0.0247 l 0.008,0.0162 0.006,0.0102 0.005,0.0127 0.004,0.009 0.008,0.0134 c 0.0222,0.0402 0.0462,0.0755 0.0748,0.11113 0.006,0.006 0.0123,0.012 0.019,0.0197 0.0381,0.043 0.078,0.0829 0.12524,0.11642 0.0169,0.0141 0.0356,0.0257 0.0547,0.0367 l 0.0123,0.0102 c 0.0564,0.0307 0.11148,0.0586 0.17004,0.0758 0.01,0.003 0.0176,0.007 0.0268,0.008 0.0205,0.005 0.21555,0.0222 0.21555,0.0222 0.9024,-0.0995 1.60372,-0.86078 1.60372,-1.78506 0,-0.92534 -0.70132,-1.68698 -1.60372,-1.78611 v -0.83468 c 0.90452,-0.096 1.60796,-0.86077 1.60796,-1.7847 0,-0.83396 -0.5715,-1.53564 -1.34303,-1.73708 -0.061,-0.0215 -0.12453,-0.0367 -0.19085,-0.0437 -0.0226,-0.003 -0.048,-0.006 -0.0741,-0.006 -0.43992,0.002 -0.79622,0.35207 -0.80152,0.78705 m 3.07728,2.95557 c 1.0086,0.3556 1.7332,1.3141 1.7332,2.4451 0,1.42805 -1.15781,2.58692 -2.58939,2.59468 h -0.0166 -1.40299 -1.29505 -0.30833 -2.40418 -4.01002 v -0.79869 c 0.4445,0 0.80256,-0.3563 0.80256,-0.79692 v -6.38634 c 0,-0.44238 -0.35806,-0.80045 -0.80256,-0.80045 v -0.79939 h 4.01002 3.20604 0.28858 0.51294 1.18251 c 0.0162,0 0.0335,0 0.0487,0.003 0.56339,0.006 1.07985,0.20496 1.48661,0.53305 0.51046,0.39722 0.88723,1.01388 0.89005,1.8489 v 0.006 0.005 c 0,0.14323 -0.0106,0.26988 -0.0314,0.38841 -0.12665,0.77117 -0.6223,1.41817 -1.3007,1.75754"
         style="fill:#005bab;fill-opacity:1;fill-rule:nonzero;stroke:none;stroke-width:0.35277778"
         id="path126"
         inkscape:connector-curvature="0" />
      <path
         d="m 128.45531,136.73695 c 0,-1.76248 1.43439,-3.19299 3.20499,-3.19299 1.7727,0 3.20886,1.43051 3.20886,3.19299 0,1.76248 -1.43616,3.19546 -3.20886,3.19546 -1.7706,0 -3.20499,-1.43298 -3.20499,-3.19546 m 3.50591,-1.46544 c 0.50235,-0.0561 0.96061,-0.25647 1.3342,-0.55562 -0.37359,-0.30022 -0.83185,-0.49918 -1.3342,-0.55633 z m -1.93323,-0.55562 c 0.3743,0.29915 0.8315,0.49953 1.33315,0.55562 v -1.11195 c -0.50165,0.0572 -0.95885,0.25611 -1.33315,0.55633 m 1.33315,1.15746 c -0.66357,-0.0614 -1.27176,-0.32456 -1.75613,-0.72919 -0.28575,0.36477 -0.47484,0.80927 -0.53199,1.29434 h 2.28812 z m 2.35832,-0.72919 c -0.48542,0.40463 -1.09255,0.66781 -1.75824,0.72919 v 0.56515 h 2.28988 c -0.0565,-0.48507 -0.2473,-0.92957 -0.53164,-1.29434 m -2.35832,3.05788 c -0.50165,0.0575 -0.96026,0.25682 -1.33421,0.55774 0.37395,0.2988 0.83256,0.49741 1.33421,0.55633 z m 1.93428,0.55774 c -0.37253,-0.30092 -0.83185,-0.50024 -1.3342,-0.55774 v 1.11407 c 0.50235,-0.0589 0.96167,-0.25753 1.3342,-0.55633 m -1.3342,-1.16064 c 0.66675,0.0614 1.27282,0.32455 1.75824,0.72954 0.2854,-0.36406 0.47519,-0.80927 0.53164,-1.29152 h -2.28988 z m -2.35621,0.72954 c 0.48437,-0.40499 1.09256,-0.66816 1.75613,-0.72954 v -0.56198 h -2.28812 c 0.0571,0.48225 0.24518,0.92746 0.53199,1.29152"
         style="fill:#f5821f;fill-opacity:1;fill-rule:nonzero;stroke:none;stroke-width:0.35277778"
         id="path130"
         inkscape:connector-curvature="0" />
    </g>
  </g>
</svg>
