<svg xmlns="http://www.w3.org/2000/svg" width="177" height="45" viewBox="0 0 177 45">
  <defs>
    <style>
      .cls-1 {
        fill: #fff;
        fill-rule: evenodd;
      }
    </style>
  </defs>
  <path class="cls-1" d="M431.735,599c0.071,1.338.093,4.512,0.088,7.628s-0.017,6.289-.088,7.627c-0.213,4-1.52,5.772-5.735,5.938-1.736.069-7.209,0.1-12.021,0.1v0.528a0.351,0.351,0,0,1-.357.358H408.2a0.351,0.351,0,0,1-.358-0.358v-0.528c-4.812,0-10.285-.028-12.022-0.1-4.214-.166-5.521-1.936-5.734-5.938-0.071-1.338-.093-4.513-0.089-7.627,0-2.509-.044-5.126.089-7.628,0.213-4,1.52-5.772,5.734-5.938,1.737-.07,7.21-0.1,12.022-0.1v-0.6A0.357,0.357,0,0,1,408.2,592h5.418a0.357,0.357,0,0,1,.357.367v0.6c4.812,0,10.285.027,12.021,0.1,4.2,0.166,5.521,1.915,5.735,5.938h0Zm-6.221,14.825c0.031-3.163.046-5.159,0.045-7.2s-0.014-4.034-.045-7.2c-1.479,0-6.235,0-11.535,0v14.4c5.3,0,10.056,0,11.535,0h0Zm-29.223,0h0c1.478,0,6.234,0,11.534,0v-14.4c-5.3,0-10.056,0-11.534,0-0.032,3.164-.047,5.158-0.046,7.2s0.014,4.034.046,7.2h0Zm170.6,0.245h0a0.359,0.359,0,0,0-.258-0.1h-1.709c0.058-1.494.076-4.4,0.071-7.253,0.006-3.115-.018-6.291-0.088-7.627-0.107-2.007-.441-3.444-1.36-4.4a6.172,6.172,0,0,0-4.374-1.536c-2.1-.082-6.689-0.1-11.94-0.1-5.252-.008-10.5.013-12.6,0.1a6.168,6.168,0,0,0-4.373,1.536c-0.919.96-1.254,2.4-1.361,4.4-0.071,1.336-.093,4.512-0.087,7.627-0.006,2.856.014,5.759,0.072,7.253h-1.7a0.38,0.38,0,0,0-.267.1,0.364,0.364,0,0,0-.11.256v5.655a0.347,0.347,0,0,0,.11.247v0.009a0.386,0.386,0,0,0,.267.1h39.451a0.364,0.364,0,0,0,.258-0.1v-0.009a0.313,0.313,0,0,0,.111-0.247v-5.655a0.328,0.328,0,0,0-.111-0.256h0Zm-31.816-7.353h0c0-2.039.014-4.035,0.046-7.2,3.546-.007,20.019-0.007,23.565,0,0.032,3.162.046,5.158,0.046,7.2,0,1.98-.014,4.228-0.044,7.253H535.117c-0.031-3.025-.045-5.273-0.044-7.253h0Zm-13.25,7.353h0a0.358,0.358,0,0,0-.257-0.1h-1.71c0.058-1.494.076-4.4,0.071-7.253,0-3.115-.017-6.291-0.088-7.627-0.107-2.007-.441-3.444-1.36-4.4a6.169,6.169,0,0,0-4.373-1.536c-2.1-.082-6.691-0.1-11.943-0.1-5.25-.008-10.5.013-12.6,0.1a6.173,6.173,0,0,0-4.375,1.536c-0.918.96-1.253,2.4-1.36,4.4-0.07,1.336-.093,4.512-0.088,7.627,0,2.856.014,5.759,0.072,7.253h-1.7a0.38,0.38,0,0,0-.267.1,0.36,0.36,0,0,0-.11.256v5.655a0.343,0.343,0,0,0,.11.247v0.009a0.386,0.386,0,0,0,.267.1h39.452a0.363,0.363,0,0,0,.257-0.1v-0.009a0.312,0.312,0,0,0,.11-0.247v-5.655a0.327,0.327,0,0,0-.11-0.256h0Zm-31.816-7.353h0c0-2.039.014-4.035,0.047-7.2,3.545-.007,20.019-0.007,23.564,0,0.032,3.162.047,5.158,0.046,7.2,0,1.98-.014,4.228-0.043,7.253H490.05c-0.029-3.025-.044-5.273-0.043-7.253h0Zm-14.155-7.627c-0.106-2.007-.441-3.444-1.36-4.4a6.17,6.17,0,0,0-4.374-1.536c-2.1-.082-7.347-0.1-12.6-0.1-5.251-.008-10.5.013-12.6,0.1a6.166,6.166,0,0,0-4.373,1.536c-0.919.96-1.254,2.4-1.361,4.4-0.071,1.336-.094,4.512-0.088,7.627s0.017,6.29.088,7.627c0.107,2.009.442,3.445,1.361,4.4a6.17,6.17,0,0,0,4.373,1.536c2.1,0.083,7.348.1,12.6,0.094,5.251,0.009,10.5-.011,12.6-0.094a6.175,6.175,0,0,0,4.374-1.536c0.919-.959,1.254-2.395,1.36-4.4,0.071-1.337.094-4.512,0.089-7.627s-0.018-6.291-.089-7.627h0Zm-30.443,14.825h0c-0.032-3.163-.047-5.16-0.046-7.2s0.014-4.035.046-7.2c3.545-.007,20.677-0.007,24.222,0,0.031,3.162.046,5.158,0.046,7.2s-0.015,4.035-.046,7.2c-3.545.006-20.677,0.006-24.222,0h0ZM391.77,635.6v-6.427h3.622v0.681h-2.7V635.6H391.77Zm7.288,0v-6.427h3.617v0.681h-2.7v2.064h2.262V632.6h-2.262v2.327h2.888V635.6h-3.806Zm7.58,0v-6.427h0.919v2.709h3.08v-2.709h0.918V635.6h-0.918v-3.035h-3.08V635.6h-0.919Zm9.308,0v-6.427h3.618v0.681h-2.7v2.064h2.261V632.6h-2.261v2.327h2.887V635.6h-3.806Zm7.58,0v-6.427h1.764a4.328,4.328,0,0,1,1.173.123,1.389,1.389,0,0,1,.677.437,1.7,1.7,0,0,1,.345,1.125,1.972,1.972,0,0,1-.7,1.606,2.949,2.949,0,0,1-1.942.582h-0.406V635.6h-0.91Zm0.91-3.245h0.372a1.923,1.923,0,0,0,1.264-.373,1.306,1.306,0,0,0,.446-1.06,0.934,0.934,0,0,0-.352-0.82,2.1,2.1,0,0,0-1.166-.248h-0.564v2.5h0Zm5.646,3.245,2.568-6.427h0.91l2.527,6.427H435.1l-0.705-1.78h-2.738l-0.717,1.78h-0.853Zm1.831-2.458h2.211l-1.105-2.771-1.106,2.771h0Zm7.137,2.458v-0.8a1.407,1.407,0,0,0,1.233-1,17.158,17.158,0,0,0,.306-4.221v-0.408h3.776V635.6h-0.918v-5.759H441.5v0.144a15.494,15.494,0,0,1-.333,3.977,2.319,2.319,0,0,1-.739,1.176,2.652,2.652,0,0,1-1.381.462h0Zm9.711,0v-6.427h0.918v2.757h0.494a7.028,7.028,0,0,1,1.12.063,1.846,1.846,0,0,1,.666.263,1.534,1.534,0,0,1,.744,1.385,1.756,1.756,0,0,1-.844,1.6,3.807,3.807,0,0,1-1.921.36h-1.177Zm0.918-.669H450a2.357,2.357,0,0,0,1.317-.269,1.12,1.12,0,0,0,.464-0.961,0.938,0.938,0,0,0-.391-0.842,2.353,2.353,0,0,0-1.263-.26h-0.451v2.332h0Zm6.907,0.669v-6.427H457.5v2.709h3.08v-2.709H461.5V635.6h-0.919v-3.035H457.5V635.6h-0.918Zm9.308,0v-6.427h0.918v2.757h0.494a7.028,7.028,0,0,1,1.12.063,1.853,1.853,0,0,1,.666.263,1.533,1.533,0,0,1,.743,1.385,1.755,1.755,0,0,1-.843,1.6,3.809,3.809,0,0,1-1.922.36h-1.176Zm0.918-.669h0.324a2.357,2.357,0,0,0,1.317-.269,1.12,1.12,0,0,0,.464-0.961,0.938,0.938,0,0,0-.391-0.842,2.353,2.353,0,0,0-1.263-.26h-0.451v2.332h0Zm3.7,0.669v-6.427h0.918V635.6h-0.918Zm5.314,0v-6.427h0.918v5.117l3.128-5.117h0.918V635.6h-0.918v-5.117l-3.128,5.117h-0.918Zm0.976-8.25h0.538a0.979,0.979,0,0,0,1.838,0h0.538a1.4,1.4,0,0,1-.466.934,1.576,1.576,0,0,1-1.982,0,1.416,1.416,0,0,1-.466-0.935h0Zm14.056,8.25v-6.427h4.916V635.6h-0.918v-5.746h-3.08V635.6h-0.918Zm11.6,0.16a2.819,2.819,0,0,1-2.2-.919,4.072,4.072,0,0,1,0-4.909,3.1,3.1,0,0,1,4.407,0,4.068,4.068,0,0,1,0,4.909,2.815,2.815,0,0,1-2.2.919h0Zm0-.682a1.792,1.792,0,0,0,1.51-.714,3.222,3.222,0,0,0,.542-1.986,3.185,3.185,0,0,0-.542-1.973,1.961,1.961,0,0,0-3.02,0,3.178,3.178,0,0,0-.542,1.973,3.215,3.215,0,0,0,.542,1.986,1.789,1.789,0,0,0,1.51.714h0ZM508.438,637v-2.2h0.512a8.012,8.012,0,0,0,1.008-2.265,11.325,11.325,0,0,0,.287-2.764v-0.6h3.534V634.8h0.893V637h-0.893V635.6h-4.448V637h-0.893Zm4.428-2.2v-4.956h-1.7v0.1a9.551,9.551,0,0,1-1.158,4.852h2.861Zm5.637,0.8v-6.427h1.764a4.341,4.341,0,0,1,1.174.123,1.386,1.386,0,0,1,.676.437,1.7,1.7,0,0,1,.344,1.125,1.971,1.971,0,0,1-.7,1.606,2.946,2.946,0,0,1-1.942.582h-0.406V635.6H518.5Zm0.91-3.245h0.371a1.924,1.924,0,0,0,1.265-.373,1.306,1.306,0,0,0,.446-1.06,0.934,0.934,0,0,0-.351-0.82,2.1,2.1,0,0,0-1.166-.248h-0.565v2.5h0Zm9.732,0.514h-0.586a11.262,11.262,0,0,0-1.484,2.027q-0.119.2-.319,0.522l-0.114.182h-1.19a8.407,8.407,0,0,0,.722-0.976l0.188-.293,0.119-.177,0.257-.391a3.511,3.511,0,0,1,1-1.064,1.916,1.916,0,0,1-1.1-.621,1.654,1.654,0,0,1-.428-1.125,1.741,1.741,0,0,1,.626-1.377,1.483,1.483,0,0,1,.649-0.319,5.5,5.5,0,0,1,1.115-.084h1.469V635.6h-0.918v-2.731h0Zm0-3.028H528.6a1.614,1.614,0,0,0-1.033.261,1.091,1.091,0,0,0-.4.874,1.069,1.069,0,0,0,.418.916,2.081,2.081,0,0,0,1.241.307h0.311v-2.358h0ZM533.589,637v-2.2H534.1a8.012,8.012,0,0,0,1.008-2.265,11.33,11.33,0,0,0,.286-2.764v-0.6h3.534V634.8h0.893V637H538.93V635.6h-4.448V637h-0.893Zm4.428-2.2v-4.956h-1.7v0.1a9.551,9.551,0,0,1-1.158,4.852h2.861Zm8.326,0.8v-2.588a3.282,3.282,0,0,1-1.623.391,1.943,1.943,0,0,1-1.444-.521,1.439,1.439,0,0,1-.368-0.608,3.64,3.64,0,0,1-.1-0.973v-2.128h0.917v2.1a1.639,1.639,0,0,0,.269,1.077,1.236,1.236,0,0,0,.96.3,2.589,2.589,0,0,0,1.387-.386v-3.1h0.919V635.6h-0.919Zm5.316,0v-6.427h0.918v5.117l3.128-5.117h0.918V635.6h-0.918v-5.117l-3.128,5.117h-0.918Zm10.277-2.974V635.6h-0.917v-6.427h0.917v2.775h0.044a0.765,0.765,0,0,0,.547-0.177,5.545,5.545,0,0,0,.639-0.944l0.276-.468,0.227-.4a1.846,1.846,0,0,1,.519-0.613,1.162,1.162,0,0,1,.657-0.177l0.113,0v0.668l-0.07,0a1.013,1.013,0,0,0-.707.655l-0.171.308-0.135.236a6.612,6.612,0,0,1-.513.812,1.771,1.771,0,0,1-.455.391,1.676,1.676,0,0,1,.738.45,5.175,5.175,0,0,1,.658,1.091l0.223,0.447c0.027,0.055.108,0.226,0.244,0.509,0.157,0.328.305,0.615,0.452,0.864h-0.971l-0.07-.135L563.9,634.9l-0.367-.747a3.871,3.871,0,0,0-1.146-1.523h-0.448Z" transform="translate(-390 -592)"/>
</svg>
