<svg id="Слой_1" data-name="Слой 1" xmlns="http://www.w3.org/2000/svg" viewBox="0 0 1102.92084 336.77051"><path d="M112.25793,112.257V0L0,111.99023V336.76984H112.25793L224.51434,224.51349v112.257L336.77216,224.78027V.00049H224.51434Zm0,112.25506V112.25848H224.51434V224.512Z" fill="#fff"/><path d="M800.94269,232.79639c-39.33173,0-61.44794-28.83875-61.44794-64.48554,0-28.62317,16.1-64.54529,60.3324-64.54529,27.61175,0,45.42224,16.8772,51.73584,24.73761L887.3996,92.66663a117.61094,117.61094,0,0,0-90.376-42.22821c-65.09924,0-116.467,48.18481-116.467,117.87243,0,65.09918,51.36774,117.86878,116.467,117.86878a117.686,117.686,0,0,0,94.97168-48.07727l-36.067-36.0669C844.52057,219.90912,825.89594,232.79639,800.94269,232.79639Z" fill="#fff"/><polygon points="449.028 280.643 507.963 280.643 507.963 106.643 597.766 106.643 597.766 280.643 656.7 280.643 656.7 56.127 449.028 56.127 449.028 280.643" fill="#fff"/><path d="M1021.50226,140.24915h-50.349V106.64343h112.124V56.1272H912.21893V280.64307s84.066-.00385,112.08692-.00385c44.93872-.0036,78.615-22.52875,78.615-70.19684C1102.92084,162.69257,1069.24457,140.24915,1021.50226,140.24915Zm-5.61463,92.685H971.15326V188.077h44.73437c13.90259,0,27.97986,5.48065,27.97986,22.36535C1043.86749,227.33429,1029.79022,232.93414,1015.88763,232.93414Z" fill="#fff"/></svg>