<svg id="Слой_1" data-name="Слой 1" xmlns="http://www.w3.org/2000/svg" viewBox="0 0 496.06305 378.91437"><path d="M500.5069,331.06787c-3.18048-7.2334-12.74738-8.92255-19.37226-6.90485-4.48553,1.36628-6.15881,4.9643-7.72863,5.50086l-.38947-5.08527-8.4657.04871.04895,62.36871,8.8971-.19073.06982-18.96613c3.19293,1.753,4.24939,4.31073,9.05982,4.908,7.80261.96948,15.01818-1.07092,17.90869-8.7406,2.5039-6.6427,1.656-8.98505,2.61242-10.96106V342.38922C502.32764,340.68079,501.83661,334.09161,500.5069,331.06787Zm-24.91431,30.11762c-2.19055-3.20459-2.09369-7.50507-2.08716-11.49848.01618-9.61139-.48413-16.4823,9.09326-18.4201,9.17072-1.85529,11.05994,7.31372,11.27454,15.38586C494.55609,372.3653,478.7561,365.8147,475.59259,361.18549Z" transform="translate(-7.08459 -8.96771)" fill="#fff"/><path d="M21.68622,353.15918q.00165-10.71625.0003-21.4325l9.26667-.10119.18823-6.92847-9.36621-.18-.09552-16.17426-9.097-.123-.0119,16.208-5.46411.20629-.0221,6.7782,5.3122.25769c2.82672,15.75861-8.59888,43.99109,18.99182,39.84015.6131-1.76343.32678-5.15143.31287-7.17761C21.83807,364.54712,21.68451,362.687,21.68622,353.15918Z" transform="translate(-7.08459 -8.96771)" fill="#fff"/><path d="M188.30951,345.255c-3.52258-1.02471-9.40308-2.53948-11.82282-5.04962-3.67761-3.81518-1.13549-9.13916,3.962-9.64459,10.26306-1.01819,9.92578,3.10193,12.147,5.28723,1.89838-.42071,5.11969-2.323,6.79779-3.21789-1.15936-8.43683-15.66845-10.86975-23.5559-8.413-9.74469,3.03571-12.24537,14.8479-6.95026,20.98291,6.10126,7.06909,19.4956,7.05182,21.5592,11.80579,2.58887,5.966-2.54724,8.49768-7.82983,8.51782-7.41718.02777-7.45831-3.39453-10.84-6.31189a23.42656,23.42656,0,0,0-6.96563,3.49616c3.14172,11.56372,26.58734,14.71551,33.22631,3.25311C202.35461,358.507,200.33319,348.75208,188.30951,345.255Z" transform="translate(-7.08459 -8.96771)" fill="#fff"/><path d="M101.58771,356.34418c-1.23932-1.00519-1.33252-2.0257-2.006-3.83051l-4.42524-12.09338c-1.8471-5.02637-3.77288-11.32471-5.868-15.84906l-8.80041.13684c.11328,1.6875,9.352,26.99121,10.68432,30.57391,3.83161,10.3042,7.39759,14.35041,1.19709,22.15735-2.03443,2.56134-3.33161,2.3667-7.40979,2.5708l.18029,7.87195h5.93427c1.7774-.95886,4.5683-1.0108,7.43872-4.75079a34.72269,34.72269,0,0,0,4.03259-7.68561c2.29663-5.671,19.24579-48.64557,19.36493-50.89459l-8.254.03881C112.57849,325.72888,102.43842,353.12683,101.58771,356.34418Z" transform="translate(-7.08459 -8.96771)" fill="#fff"/><path d="M136.23419,340.10931a5.55643,5.55643,0,0,1-.8739-6.457c.989-2.04547,2.71442-2.97729,5.599-3.1289,9.84332-.5185,8.30414,2.40912,11.73309,5.37469,1.8346-.53308,5.33942-2.27185,6.54041-3.57245-2.228-7.77063-14.34155-11.0639-23.686-8.03283-10.19171,3.30664-11.77508,15.58013-6.48059,21.25109,6.16278,6.60193,19.7439,6.86445,21.48407,11.9148,2.01831,5.8587-2.883,8.00281-7.83178,8.05243-5.927.06036-8.81208-2.75159-10.74451-6.3504a21.09547,21.09547,0,0,0-7.36438,3.54718c2.3927,8.00933,13.41528,11.85681,23.22766,9.91174,10.84021-2.14874,14.6452-12.03992,10.34613-20.61951C154.37421,344.39673,140.49329,345.08917,136.23419,340.10931Z" transform="translate(-7.08459 -8.96771)" fill="#fff"/><path d="M53.89142,325.04572c-2.78424,1.37341-4.24433,3.88519-5.50171,4.45489l-.095-21.22949-8.87439-.03479-.00849,63.12774,8.80951.09693c.47541-7.6756.08838-16.62543.07569-24.37988-.03009-18.49555,14.67352-17.82935,17.53369-12.02344,1.46612,2.97693.972,7.89392.972,11.59112,0,7.95063-.37017,16.83643.08,24.67389l8.85425.08679c.27643-7.23315.71972-34.90356-.89228-39.73016C71.407,321.38867,58.86877,322.58948,53.89142,325.04572Z" transform="translate(-7.08459 -8.96771)" fill="#fff"/><path d="M336.56879,324.85321c-2.38019-.4646-8.7406-.83282-10.4383.0567-.92889.4867-14.65,15.63617-16.8786,16.6258l-.05017-33.30793-8.85821-.10949-.12391,63.21124,8.9181.09607c.23724-5.01453.12164-10.34131.06689-15.23682-.04706-4.19641-.01447-3.55408,2.2254-5.63977,1.36725-1.273,2.76892-2.82672,4.27411-3.39844,3.54053,5.953,9.48822,20.29914,12.21594,24.14356l9.5766.17145c-.9992-4.38886-14.83343-28.01618-15.26831-31.76166Z" transform="translate(-7.08459 -8.96771)" fill="#fff"/><path d="M267.73431,325.47119c-3.25048,1.887-4.15509,3.75842-5.5086,4.5575l-.20038-5.42072-8.52319.03381-.142,46.63221,8.92682.15222.0545-26.07929c.036-12.4328,10.11878-16.46545,15.868-12.31292,2.60278,1.88,2.58118,5.455,2.58551,9.27472l.00311,28.93206,8.88178.20325c.41638-6.85052.66931-35.14654-.89459-39.86566C285.37292,321.28552,273.10114,322.3559,267.73431,325.47119Z" transform="translate(-7.08459 -8.96771)" fill="#fff"/><path d="M449.37244,325.3598c-4.462-2.51831-13.0011-2.93078-17.96375.72339a14.34171,14.34171,0,0,0-2.63586,2.57843c-.75293.78375-.205.43988-1.09449.90338l-.41815-4.9657-8.56317-.03289-.13318,62.35931,9.31287.02435.08191-18.72619c4.09582,1.14465,2.998,4.18591,10.55432,4.63434,4.63965.27587,9.26105-.52955,11.97748-2.94013,5.97339-5.30048,6.69317-13.04871,6.68182-22.83588C457.16089,337.50031,455.92383,329.05731,449.37244,325.3598Zm-9.2265,39.81171a10.82388,10.82388,0,0,1-10.02924-3.59174c-2.32471-3.07586-2.18066-6.78955-2.1756-11.4588.009-9.07629-.4422-17.274,8.32623-18.87445,9.42261-1.72009,11.56647,6.5733,11.62116,14.95978C447.94031,354.19952,447.84113,363.695,440.14594,365.17151Z" transform="translate(-7.08459 -8.96771)" fill="#fff"/><path d="M231.56824,323.73383c-13.97-2.2016-22.22913,3.78936-24.03614,15.67187-1.77539,11.6734-.6137,26.10938,7.6507,31.09009,8.61218,5.19061,26.05463,2.40179,28.17523-6.91931-1.06982-.88159-5.30792-3.2049-6.95563-3.36835-7.4107,9.85937-22.493,5.32336-20.35449-9.12311l28.06671-.07452C245.26263,338.14178,242.99658,325.535,231.56824,323.73383Zm3.85107,20.67364-19.17041-.16125c-.96887-17.1009,14.55139-15.99964,17.35913-9.61341C234.70978,337.13892,235.83972,341.085,235.41931,344.40747Z" transform="translate(-7.08459 -8.96771)" fill="#fff"/><path d="M273.21143,256.88977c41.03881,20.38141,92.6773,3.90131,115.00268-35.23236,19.68829-34.5127,15.06751-78.03534-12.9906-105.9364-9.09607-9.0459-15.81232-13.51105-28.41138-19.73-.95843-14.00476-2.416-23.11231-7.45654-34.20789-10.95538-24.11658-30.28876-41.33881-55.82526-49.18371C274.7962,9.9162,272.32581,10.48621,267.19141,9.421c-.13227-.02747-.24567-.05359-.37128-.08478l-1.06134-.36847H249.97351c-.10858.05945-.27948-.00372-.34412.13965-.178.3952-7.94348,1.3147-8.65417,1.4613-2.6748.55054-5.654,1.2464-8.30719,2.03534a89.45808,89.45808,0,0,0-38.93274,23.97907C179.65222,51.80292,171.30811,68.3374,169.55353,96.135c-20.38422,7.72217-38.40125,27.8252-46.7912,48.26886-10.73773,26.16333-7.01441,55.361,5.92975,77.3952,10.885,18.52906,30.13543,35.04254,54.0224,41.006,45.498,11.359,73.77331-14.80224,75.37494-14.81732Zm52.05676-1.51459a86.86972,86.86972,0,0,1-23.77759.5633,78.33891,78.33891,0,0,1-20.05371-5.15229c-4.14185-1.64807-13.7287-6.25409-15.8595-8.7406.40515-.97632,4.627-5.13641,5.519-6.07751a69.33014,69.33014,0,0,0,5.12554-6.16559c11.72242-15.85278,15.98523-30.14557,17.36762-51.12628,2.04211-1.39319,5.429-2.66,7.76984-4.0025,5.92889-3.40021,16.15777-10.2696,19.8009-14.82831,2.62988,5.9527,4.77319,15.0426,6.73895,21.488,2.22724,7.30121,4.09955,14.70111,6.05091,22.0907,1.927,7.2995,3.89172,15.19434,5.60412,22.638.99518,4.3252,4.6919,20.02991,4.73212,23.36231C341.11133,251.7843,330.08344,254.58661,325.26819,255.37518Zm-114.94-136.69537,9.02661-19.60675c8.76471.4162,27.05328,8.48334,31.34521,13.19531-.59442,1.30371-3.92993,4.29822-5.19842,5.63391-1.62708,1.7135-3.1847,3.74622-4.7016,5.70813-10.74066,13.89569-15.18939,26.78137-17.61811,44.91748-5.18566-.43091-23.98-15.8009-24.41674-18.57C198.42664,147.8092,209.1322,121.47449,210.32819,118.67981ZM192.11188,141.253c-5.46826-4.20068-13.64026-28.5282-13.394-38.96741,5.79882-3.7771,22.73132-5.12439,31.23584-4.63427-.08936,1.9046-3.79792,8.5119-4.8183,10.6676C201.0813,116.88147,194.93121,132.70819,192.11188,141.253Zm73.59906-40.03943c-10.73456,6.39984-4.697,6.10413-15.16852-.051C236.1557,92.70618,231.36829,93.55408,224.86,90.56671c.90539-3.65564,10.57183-15.19464,12.97363-17.66785,13.60339-14.00518,26.7644-14.56018,40.7276-.21228,2.29492,2.3584,11.96527,13.82819,13.08472,18.00959A94.18749,94.18749,0,0,0,265.71094,101.21356ZM296.69159,99.239c2.03381,2.39978,7.7904,15.83631,9.41162,19.701,2.78363,6.63709,5.36993,13.51868,8.1297,20.5047.73419,1.85871,3.7287,9.739,3.44019,10.78217-.72541,2.62005-19.3332,17.68933-24.32917,18.35522-2.46533-18.88019-7.25531-31.15307-18.0213-45.36261-2.39813-3.16491-9.30951-10.02417-9.72931-10.95111C269.21912,108.159,288.862,98.99939,296.69159,99.239Zm-56.25977,41.37391a76.82587,76.82587,0,0,1,7.93958-12.45862c1.91223-2.43409,7.34112-8.8418,9.718-10.17578,2.39038,1.12445,8.22271,8.175,9.94391,10.381,8.31176,10.6571,17.27917,30.92,16.382,44.24035-9.24383,4.88147-28.80285,5.31147-40.37951,3.27967-4.64911-.8161-8.23694-2.22071-12.18451-3.04267C231.86182,161.29419,236.2229,149.01111,240.43182,140.61292ZM346.39313,105.982c3.26886-.06463,14.95221,9.12452,16.928,10.78931A81.19421,81.19421,0,0,1,376.61243,131.26c22.54138,31.54279,18.23956,74.53748-8.1286,101.46039-3.21869,3.2865-11.75782,10.7774-15.40711,12.17492-.57519-.82183-7.49878-32.186-8.69928-36.70623-5.36944-20.21607-9.10913-33.87879-15.2251-53.3761-1.53271-4.88458-.3739-4.07019,2.02839-7.592A85.95118,85.95118,0,0,0,346.39313,105.982Zm-13.02429,18.22168c-1.41022,3.958-6.1897,14.90509-8.91871,16.83692-1.3305-2.25751-3.24194-8.49909-4.316-11.42389-2.63586-7.179-5.85669-14.65173-9.05407-21.717-.67133-1.4831-4.52668-8.76666-4.76282-10.24439,7.7627-.6549,25.70483.90992,31.13464,4.63031C338.16779,108.39026,335.11554,119.302,333.36884,124.20367ZM203.18262,39.96057C245.13422,1.6004,306.29144,15.80371,329.50909,62.066c3.873,7.717,8.05011,19.97009,8.04084,30.32019-2.51459-.25739-5.74073-1.46655-8.65253-2.03241-12.93671-2.5141-14.91388-1.519-27.595-1.39777-4.05951-8.16241-11.48541-17.14141-16.755-22.70013-26.96118-28.44367-54.1474-5.3833-69.26684,22.6604-6.931.054-12.261-.62836-19.60468.08343-7.82757.75879-13.52441,3.01911-17.01922,3.40241C179.08722,71.1955,191.9704,50.2124,203.18262,39.96057ZM163.53613,244.872c-3.31573-.85272-13.51471-10.08539-15.4519-12.1062a79.61572,79.61572,0,0,1,5.11926-116.07794c2.93329-2.48676,12.58423-9.83509,16.71509-10.80677.6709,3.10877.95386,6.7887,1.622,10.067a83.28837,83.28837,0,0,0,2.41882,8.90594,85.135,85.135,0,0,0,6.91138,15.62506c5.525,9.70331,8.22162,9.35773,6.34564,14.601-4.37073,12.21564-12.3222,40.83081-15.07153,53.00763Zm70.954,6.10156a80.79583,80.79583,0,0,1-43.361,4.32764c-5.00226-.82312-15.88538-3.63233-18.89966-5.87683-.06464-8.04328,18.34808-79.48908,22.94415-89.40009,1.13843.60181,9.98273,9.19641,20.27362,14.87421,1.7887.98669,6.05683,2.80878,7.27973,3.77771,1.218,21.17029,6.08819,35.6607,17.50445,51.29919,2.94263,4.03137,10.15882,11.40229,10.45984,12.07019C247.89093,244.82269,239.08173,249.25317,234.49011,250.97357Zm5.82038-37.5415c-3.723-7.19348-8.74628-21.492-8.54895-31.20935,2.95227.17138,8.551,2.08966,12.30456,2.69427a83.922,83.922,0,0,0,28.00739.00232c3.34491-.59759,9.94433-2.583,12.3656-2.69983.21185,10.72693-4.62665,23.56873-8.68335,31.52533-3.3927,6.65338-12.4925,19.44647-17.66632,22.21991C252.96521,233.50818,243.271,219.153,240.31049,213.43207Z" transform="translate(-7.08459 -8.96771)" fill="#fff"/><path d="M357.9231,327.19489c-2.51636,1.87152-4.07087,5.17919-5.73645,6.45568l-.07544-8.94958-8.42829-.13831-.14172,46.755,8.93823.08728c.60291-10.75751-2.53363-28.29853,4.44641-34.793,3.41687-3.17816,5.1659-2.47858,10.37281-3.0611l.07739-8.92261A14.57862,14.57862,0,0,0,357.9231,327.19489Z" transform="translate(-7.08459 -8.96771)" fill="#fff"/><path d="M400.78491,348.81927c.015,7.52375-2.19177,14.90064-9.11,15.68213-15.85279,1.791-6.54859-19.79181-9.5224-39.95031l-8.96973.05468c-.84869,6.23005-.5545,35.87134.98419,40.39234,3.20374,9.41638,15.63843,9.28338,21.14936,6.129,3.11065-1.7804,3.73767-3.539,5.79089-4.88007l.15307,5.08789,8.46052.08221.05126-46.7113-8.84039-.1355C400.11053,330.6308,400.77179,342.25708,400.78491,348.81927Z" transform="translate(-7.08459 -8.96771)" fill="#fff"/></svg>