<svg id="Слой_1" data-name="Слой 1" xmlns="http://www.w3.org/2000/svg" viewBox="0 0 2078.98004 812.98102"><path d="M2065.03058,512.30225c-238.07642,0-496.90711,19.98864-727.66858,45.08062,43.03918-77.40246,88.97034-161.69464,107.85315-202.097l72.89453-12.41846C1447.682,382.75952,1399.79425,510.346,1495.48419,510.346s156.84644-130.22333,156.84644-130.22333c61.15637,6.63452,143.57727-67.791,143.57727-67.791a98.15488,98.15488,0,0,1-2.7218,29.00463c-105.64173,42.18866-124.86475,85.90827-124.86475,109.21412,0,25.26214,10.6322,43.88977,50.52429,43.88977,86.41858,0,103.6853-75.78644,103.6853-108.95893,0-9.18622.17017-20.58392.51038-32.322q68.26905-27.22951,137.70825-51.37481a118.76977,118.76977,0,0,1,2.04151,26.19769c-113.80713,57.75421-124.35425,78.93353-124.35425,112.02106,0,22.6253,13.2688,45.16558,46.52661,45.16558,90.3313,0,111.5957-77.06225,111.5957-114.3175,0-19.9035-2.63672-97.05078-2.63672-97.05078,29.25977-13.269,83.69654-101.04852,30.53565-101.04852-53.16113,0-59.79566,94.329-59.79566,94.329-9.18627,18.45752-13.269,18.62763-141.02551,62.94269.68042-22.0299,1.531-40.31732,1.531-40.31732,17.2666-15.99084,87.69446-103.6853,31.8966-103.6853s-62.43225,99.68756-62.43225,99.68756c-97.0509,85.05768-116.95434,65.15417-116.95434,65.15417,19.90344-51.80011,6.6344-77.06225-13.26892-77.06225-19.90357,0-45.16577,26.538-54.5221,57.15875-7.1449,23.39081,23.90125,45.16565,23.90125,45.16565-93.05323,134.221-126.22559,94.329-126.22559,73.06458,0-74.42548,123.58875-148.851,91.69214-143.57734-6.88965,1.1908-75.021,8.76087-138.38892,15.73566l4.16773-8.42071C1725.65021,113.552,1746.65961,0,1690.94684,0c-47.80249,0-143.57739,104.96118-220.63965,225.91321-15.05518,23.561-36.83008,59.3703-61.752,101.1336l-59.19995,6.46442s-21.85987,23.13568-34.53345,43.88977l70.938-12.07825-16.58618,27.98395c-32.49207,30.79083-66.3451,59.11505-90.3313,78.42316-41.16785,33.25757-41.16785,19.90356-33.25757,3.99774s50.354-81.40021,53.161-93.0531c6.6344-27.89893-5.27356-42.52887-23.90125-42.52887-42.52881,0-112.95654,75.78638-112.95654,75.78638l31.89673-63.79322-61.1565,7.99537C1018.31061,528.88861,951.88068,539.52087,971.78412,507.62421c9.78161-15.65058,77.06238-132.86011,77.06238-132.86011l-65.1543,3.99768-11.22754,22.54034c-8.761-7.9104-19.39319-14.54486-47.29211-14.54486-14.28968,0-98.66687,11.14252-144.76813,100.11292,0,0-39.29663.5954-56.73346,1.78619,44.74036-64.21856,71.70367-130.56354,71.70367-191.37976,0-52.991-34.19323-99.94281-95.94513-131.41412l51.71509-77.74274L636.82709,104.1106l-18.37244,33.59784A543.94624,543.94624,0,0,0,499.544,125.375c-184.31995,0-409.29755,83.27148-409.29755,83.27148L0,371.70184C191.37976,261.80731,393.39178,217.57727,489.08167,217.57727c24.07135,0,53.75646.25519,83.69677,3.74249L389.394,556.27692C211.28326,613.01038,60.22083,694.66583,60.22083,763.30737c0,33.6828,33.68286,49.67365,97.47613,49.67365,192.31537,0,419.33429-137.028,544.02893-294.55475,27.55872-2.46661,50.184-2.977,66.60016-2.807a268.474,268.474,0,0,0-10.292,37.25525c-10.377,50.43921,59.88061,65.57947,143.23712-8.33563-9.27136,33.42761,43.7196,31.98163,66.77026,14.97022,30.62073-22.54029,46.35645-34.7035,57.15882-43.88984,17.2666-14.62994,23.90112-13.269,5.27356,17.26661-12.41834,20.32885-15.99085,27.89886-15.99085,27.89886l66.43018-14.63s49.16333-74.42548,114.3175-130.22333c37.51038-32.1518,22.62537,3.99768-17.2666,65.15417-37.17029,56.90357,7.99536,65.15418,25.26221,59.79553s37.25525-3.99774,110.31994-63.79321c2.3816-1.95636,8.16553-7.74023,15.99073-15.99084-20.83912,35.46905-41.50818,71.02307-60.7312,103.94049Q955.693,600.959,645.0777,655.11371l-11.99317,23.90118s253.557-38.361,607.48194-65.40924c-37.5105,64.72888-63.87818,110.57489-63.87818,110.57489l69.06678-3.99774s27.81384-48.65308,63.02771-111.5957c233.14282-15.99085,503.11572-26.36786,770.19677-17.86206l-56.47778-39.89173C2034.49493,544.19891,2065.03058,512.30225,2065.03058,512.30225ZM1781.27814,376.12476v.00006c-12.24829,32.66217-29.345,51.20477-41.25318,59.79559-33.17236,23.98621-38.531-21.26447,5.35865-47.80249,9.8667-5.954,23.39087-11.90808,38.36108-18.5426Zm113.04175,54.437c-34.5337,0-6.63453-33.25751,25.2622-54.522,15.14014-10.12188,28.49414-13.9494,38.36084-15.14025C1947.14069,400.11115,1920.43268,430.56177,1894.31989,430.56177ZM1639.14679,61.07123c34.53332-3.57245,18.88281,78.33807-148.68091,202.69238C1538.01324,175.38873,1607.1651,64.47345,1639.14679,61.07123ZM240.96832,754.46149c-37.25512,0-56.7334,0-56.7334-24.8368,0-43.37945,83.27149-87.43933,177.68549-123.16357L310.97089,699.4292h33.68286L420.27,585.79211c72.55414-24.15643,143.152-42.5288,180.49237-51.11962,14.715-3.40241,28.91962-6.20923,42.44373-8.5058C551.85413,643.2912,394.41241,754.46149,240.96832,754.46149ZM666.42688,494.09985h.00006c-68.30127,8.42078-142.13135,23.646-214.09021,43.46448l197.674-297.19153c41.33808,18.11731,72.04389,50.43921,72.04389,108.19342C722.05463,390.24445,701.4707,441.78937,666.42688,494.09985Zm177.94073,56.13807c-33.2575,0-13.26892-55.79786,15.99085-89.05542s55.79785-42.52881,65.06909-42.52881c14.62988,0,18.62769,11.9931,18.62769,18.62762C944.05524,465.18024,877.62518,550.23792,844.36761,550.23792Z" fill="#fff"/><polygon points="2078.98 590.725 2078.98 590.725 2078.98 590.725 2078.98 590.725" fill="#fff"/></svg>