<?xml version="1.0" encoding="utf-8"?>
<!-- Generator: Adobe Illustrator 16.0.0, SVG Export Plug-In . SVG Version: 6.00 Build 0)  -->
<!DOCTYPE svg PUBLIC "-//W3C//DTD SVG 1.1//EN" "http://www.w3.org/Graphics/SVG/1.1/DTD/svg11.dtd">
<svg version="1.1" xmlns="http://www.w3.org/2000/svg" xmlns:xlink="http://www.w3.org/1999/xlink" x="0px" y="0px"
	 width="214.973px" height="157.767px" viewBox="0 0 214.973 157.767" enable-background="new 0 0 214.973 157.767"
	 xml:space="preserve">
<g id="Background">
</g>
<g id="Guides">
</g>
<g id="Foreground">
	<g>
		
			<rect x="94.266" fill-rule="evenodd" clip-rule="evenodd" fill="#FFFFFF" stroke="#FFFFFF" stroke-miterlimit="10" width="28.372" height="110.304"/>
		<rect x="62.726" y="28.372" fill-rule="evenodd" clip-rule="evenodd" fill="#FFFFFF" width="28.373" height="81.932"/>
		<rect x="125.804" y="28.372" fill-rule="evenodd" clip-rule="evenodd" fill="#FFFFFF" width="28.373" height="81.932"/>
		<g>
			<g>
				<path fill-rule="evenodd" clip-rule="evenodd" fill="#FFFFFF" d="M182.083,146.435c-0.916,0.058-3.346,0.029-3.346,0.029v10.974
					l-3.917,0.329v-33.491h8.47c6.032,0,10.91,4.94,10.91,11.036s-4.89,11.036-10.922,11.036
					C183.278,146.348,183,146.377,182.083,146.435z M180.937,143.028c0.914,0.012,2.055-0.042,2.055-0.042
					c4.307,0,7.797-3.491,7.797-7.798s-3.474-7.822-7.781-7.822c0,0-0.261,0.012-1.601,0c-1.34-0.013-2.669,0.423-2.669,0.423
					v14.858C178.737,142.648,180.023,143.018,180.937,143.028z"/>
				<path fill-rule="evenodd" clip-rule="evenodd" fill="#FFFFFF" d="M11.884,141.982h11.199l-5.553-9.418L11.884,141.982z
					 M2.984,159.012l-3.036-1.289l17.765-33.014l17.582,33.014l-3.346,1.196l-7.025-13.408H10.688L2.984,159.012z"/>
				<path fill-rule="evenodd" clip-rule="evenodd" fill="#FFFFFF" d="M147.779,141.982h11.2l-5.554-9.418L147.779,141.982z
					 M138.88,159.012l-3.036-1.289l17.765-33.014l17.582,33.014l-3.345,1.196l-7.026-13.408h-14.236L138.88,159.012z"/>
				<path fill-rule="evenodd" clip-rule="evenodd" fill="#FFFFFF" d="M2.984,159.012l-3.036-1.289l17.765-33.014l17.582,33.014
					l-3.346,1.196l-7.025-13.408H10.688L2.984,159.012z M11.884,141.982h11.199l-5.553-9.418L11.884,141.982z"/>
				<polygon fill-rule="evenodd" clip-rule="evenodd" fill="#FFFFFF" points="38.792,159.061 42.045,157.829 42.045,133.957 
					65.884,158.841 65.884,124.722 62.664,125.551 62.664,149.481 38.792,124.798 				"/>
				<polygon fill-rule="evenodd" clip-rule="evenodd" fill="#FFFFFF" points="80.122,158.304 80.122,128.089 70.15,128.089 
					72.145,124.798 93.285,124.798 93.285,128.388 84.21,128.388 84.21,157.605 				"/>
				<path fill-rule="evenodd" clip-rule="evenodd" fill="#FFFFFF" d="M138.88,159.012l-3.036-1.289l17.765-33.014l17.582,33.014
					l-3.345,1.196l-7.026-13.408h-14.236L138.88,159.012z M147.779,141.982h11.2l-5.554-9.418L147.779,141.982z"/>
				<polygon fill-rule="evenodd" clip-rule="evenodd" fill="#FFFFFF" points="112.63,125.296 125.394,145.44 118.613,157.107 
					122.203,158.403 140.85,125.596 137.161,124 127.289,141.052 115.821,123.901 				"/>
				<polygon fill-rule="evenodd" clip-rule="evenodd" fill="#FFFFFF" points="199.785,158.004 199.785,124.798 203.375,123.602 
					203.375,157.091 				"/>
				<path fill-rule="evenodd" clip-rule="evenodd" fill="#FFFFFF" d="M210.021,123.766c-1.391,0-2.563-0.453-3.519-1.36
					c-0.955-0.915-1.433-2.038-1.433-3.37s0.478-2.451,1.433-3.358c0.955-0.915,2.128-1.372,3.519-1.372s2.563,0.458,3.519,1.372
					c0.955,0.907,1.433,2.026,1.433,3.358s-0.478,2.456-1.433,3.37C212.585,123.313,211.412,123.766,210.021,123.766z
					 M210.021,115.076c-1.156,0-2.136,0.385-2.94,1.156c-0.804,0.762-1.207,1.697-1.207,2.804s0.402,2.046,1.207,2.816
					c0.804,0.762,1.784,1.144,2.94,1.144c1.156,0,2.136-0.381,2.94-1.144c0.804-0.77,1.207-1.709,1.207-2.816
					s-0.402-2.042-1.207-2.804C212.158,115.461,211.177,115.076,210.021,115.076z M210.876,119.277l1.407,2.455h-0.917l-1.42-2.455
					h-1.03v2.455h-0.804v-5.32h2.337c1.273,0,1.91,0.469,1.91,1.408c0,0.441-0.134,0.791-0.402,1.047
					C211.697,119.125,211.336,119.261,210.876,119.277z M210.298,117.183h-1.382v1.324h0.854c0.645,0,1.039-0.012,1.181-0.036
					c0.402-0.072,0.604-0.261,0.604-0.565c0-0.313-0.139-0.522-0.415-0.626C210.972,117.215,210.691,117.183,210.298,117.183z"/>
			</g>
		</g>
		
			<line display="none" fill-rule="evenodd" clip-rule="evenodd" fill="#FFFFFF" stroke="#000000" stroke-width="1.0231" stroke-miterlimit="3.8637" x1="0" y1="110.341" x2="216.902" y2="110.341"/>
		<line stroke="#FFFFFF" stroke-width="1.0231" stroke-miterlimit="3.8637" x1="0" y1="110.341" x2="214.973" y2="110.341"/>
	</g>
</g>
</svg>
