<svg xmlns="http://www.w3.org/2000/svg" width="136" height="61.031" viewBox="0 0 136 61.031">
  <defs>
    <style>
      .cls-1 {
        fill: #fff;
        fill-rule: evenodd;
      }
    </style>
  </defs>
  <path class="cls-1" d="M886,606.932l-1.856,1.845-12.461-12.384L859.22,608.777l-1.855-1.845,12.461-12.383-12.461-12.385,1.855-1.844L871.682,592.7l12.461-12.384L886,582.164l-12.461,12.385ZM861.39,623.776a6.189,6.189,0,0,1,1.276,4.092v1.245h-8.537v0.354a6.173,6.173,0,0,0,1.085,3.718,3.366,3.366,0,0,0,2.847,1.5,5.349,5.349,0,0,0,2.135-.381,4.151,4.151,0,0,0,1.51-1.084l0.57,1a4.893,4.893,0,0,1-1.726,1.244,6.147,6.147,0,0,1-2.489.461,4.686,4.686,0,0,1-3.77-1.828,7.038,7.038,0,0,1-1.5-4.627v-0.673a7.262,7.262,0,0,1,1.493-4.689,4.489,4.489,0,0,1,3.614-1.866A4.288,4.288,0,0,1,861.39,623.776Zm-5.987.939a5.57,5.57,0,0,0-1.172,3.095l0.022,0.058h7.084V627.5a4.428,4.428,0,0,0-.927-2.864,3.057,3.057,0,0,0-2.515-1.155A3.105,3.105,0,0,0,855.4,624.715Zm-4.691-1.051a2.881,2.881,0,0,0-2.074.778,4.365,4.365,0,0,0-1.156,2.121v9.311h-1.339V622.356h1.172l0.167,2.32v0.146a4.653,4.653,0,0,1,1.41-1.9,3.329,3.329,0,0,1,2.1-.683,3.27,3.27,0,0,1,.895.136l-0.179,1.364Zm-24.573-27.891a12.071,12.071,0,0,0,1.339,3.968,10.984,10.984,0,0,0,2.539,3.117,12.39,12.39,0,0,0,3.45,2.068,10.84,10.84,0,0,0,4.077.765,11.071,11.071,0,0,0,6.444-1.926,11.264,11.264,0,0,0,4.106-5.158h3.137a14.688,14.688,0,0,1-2.082,3.968,14.367,14.367,0,0,1-3.136,3.116,15.488,15.488,0,0,1-3.964,2.069,13.438,13.438,0,0,1-4.5.765,14.08,14.08,0,0,1-13.145-8.586,14.3,14.3,0,0,1,3.023-15.643,14.482,14.482,0,0,1,20.245,0,14.195,14.195,0,0,1,4.134,10.06v1.417H826.139ZM847.609,589a10.868,10.868,0,0,0-2.537-3.145,12.383,12.383,0,0,0-3.479-2.069,11.172,11.172,0,0,0-8.126,0,12.441,12.441,0,0,0-3.45,2.069A10.875,10.875,0,0,0,827.478,589a12.393,12.393,0,0,0-1.339,3.94H848.95A12.421,12.421,0,0,0,847.609,589Zm-36.075,15.209A15.054,15.054,0,0,1,807,607.214a14.363,14.363,0,0,1-12.033-.454,14.763,14.763,0,0,1-4.847-4.11v14.162h-2.851V594.149a14.184,14.184,0,0,1,4.134-10.06,14.238,14.238,0,0,1,10.123-4.109A13.683,13.683,0,0,1,807,581.085a15.033,15.033,0,0,1,4.534,3,13.976,13.976,0,0,1,3.108,4.506,14.156,14.156,0,0,1,0,11.136A14.03,14.03,0,0,1,811.534,604.209Zm0.485-14.452a11.52,11.52,0,0,0-6.074-6.036,11.221,11.221,0,0,0-8.839,0,11.523,11.523,0,0,0-6.073,6.036,11.02,11.02,0,0,0,0,8.784,11.532,11.532,0,0,0,6.073,6.036,11.221,11.221,0,0,0,8.839,0,11.529,11.529,0,0,0,6.074-6.036A11.031,11.031,0,0,0,812.019,589.757Zm-21.455,32.482a4.3,4.3,0,0,1,3.5,1.537,6.184,6.184,0,0,1,1.277,4.092v1.245H786.8v0.354a6.172,6.172,0,0,0,1.083,3.718,3.375,3.375,0,0,0,2.851,1.5,5.349,5.349,0,0,0,2.131-.381,4.118,4.118,0,0,0,1.51-1.084l0.573,1a4.886,4.886,0,0,1-1.729,1.244,6.124,6.124,0,0,1-2.485.461,4.681,4.681,0,0,1-3.772-1.828,7.037,7.037,0,0,1-1.5-4.627v-0.673a7.273,7.273,0,0,1,1.491-4.689A4.49,4.49,0,0,1,790.564,622.239ZM786.9,627.81l0.023,0.058H794V627.5a4.427,4.427,0,0,0-.925-2.864,3.055,3.055,0,0,0-2.514-1.155,3.1,3.1,0,0,0-2.492,1.232A5.557,5.557,0,0,0,786.9,627.81Zm-4.261-9.787h1.331v2h-1.331v-2Zm1.233,4.291v14.437a4.852,4.852,0,0,1-.893,3.135,3.022,3.022,0,0,1-2.482,1.105,3.1,3.1,0,0,1-.631-0.061,4.931,4.931,0,0,1-.618-0.171l0.144-1.23a4.015,4.015,0,0,0,.489.12,2.914,2.914,0,0,0,.551.061,1.822,1.822,0,0,0,1.549-.747,3.659,3.659,0,0,0,.56-2.212V622.314h1.331Zm-8.642,13.608a4.614,4.614,0,0,1-3.822-1.822,7.339,7.339,0,0,1-1.437-4.692v-0.393a7.337,7.337,0,0,1,1.437-4.684,4.879,4.879,0,0,1,7.618,0,7.353,7.353,0,0,1,1.434,4.684v0.393a7.354,7.354,0,0,1-1.431,4.692A4.584,4.584,0,0,1,775.228,635.922Zm3.925-6.913a6.456,6.456,0,0,0-1.052-3.746,3.477,3.477,0,0,0-5.775,0,6.534,6.534,0,0,0-1.041,3.746v0.4a6.538,6.538,0,0,0,1.041,3.768,3.5,3.5,0,0,0,5.781,0,6.5,6.5,0,0,0,1.046-3.768v-0.4Zm-3.49-26.25a14.447,14.447,0,0,1-4.962,4.109,13.85,13.85,0,0,1-6.444,1.558,14.08,14.08,0,0,1-13.145-8.586,14.3,14.3,0,0,1,3.023-15.643,14.484,14.484,0,0,1,20.245,0,14.2,14.2,0,0,1,4.134,10.061v14.168h-2.851v-5.667Zm-0.913-12.894a11.532,11.532,0,0,0-6.073-6.036,11.232,11.232,0,0,0-8.839,0,11.529,11.529,0,0,0-6.074,6.036,11.034,11.034,0,0,0,0,8.785,11.529,11.529,0,0,0,6.074,6.036,11.221,11.221,0,0,0,8.839,0,11.532,11.532,0,0,0,6.073-6.036A11.023,11.023,0,0,0,774.75,589.865ZM753.1,624.531a4.5,4.5,0,0,1,1.557-1.693,4.157,4.157,0,0,1,2.252-.6,3.858,3.858,0,0,1,3.409,1.9,9.166,9.166,0,0,1,1.229,5.048v0.258a8.107,8.107,0,0,1-1.229,4.719,3.915,3.915,0,0,1-3.387,1.761,4.576,4.576,0,0,1-2.23-.525,4.184,4.184,0,0,1-1.558-1.5v6.835H751.8v-18.25h1.128Zm0.043,7.817a3.893,3.893,0,0,0,1.325,1.711,3.626,3.626,0,0,0,2.161.622,2.96,2.96,0,0,0,2.666-1.44,7.064,7.064,0,0,0,.911-3.819v-0.254a8.1,8.1,0,0,0-.917-4.1,2.921,2.921,0,0,0-2.681-1.587,3.311,3.311,0,0,0-2.2.7,4.277,4.277,0,0,0-1.269,1.822v6.34Zm11.662-7.641v0.145a4.729,4.729,0,0,1,1.424-1.922,3.361,3.361,0,0,1,2.124-.691,2.945,2.945,0,0,1,.5.044,2.392,2.392,0,0,1,.4.1l-0.18,1.375-1-.073a2.906,2.906,0,0,0-2.095.785,4.36,4.36,0,0,0-1.169,2.147v9.2h-1.356V622.486h1.186Zm37.4-2.468a4.584,4.584,0,0,1,3.311,1.28,4.319,4.319,0,0,1,1.28,3.361l-0.022.076h-1.2a3.293,3.293,0,0,0-3.373-3.473A3.134,3.134,0,0,0,799.327,625a7.142,7.142,0,0,0-.935,3.816v0.513a7.262,7.262,0,0,0,.927,3.845,3.152,3.152,0,0,0,2.893,1.509,3.625,3.625,0,0,0,2.348-.826,2.794,2.794,0,0,0,1.016-2.3h1.186l0.019,0.075a3.75,3.75,0,0,1-1.339,3.057,4.757,4.757,0,0,1-3.23,1.231,4.438,4.438,0,0,1-3.814-1.844,7.858,7.858,0,0,1-1.347-4.749V628.82a7.825,7.825,0,0,1,1.353-4.73A4.432,4.432,0,0,1,802.2,622.239Zm8.03-3.13h1.351v3.247h2.66v1.2h-2.66v8.715a2.984,2.984,0,0,0,.431,1.833,1.391,1.391,0,0,0,1.144.544c0.217,0,.428-0.011.632-0.03s0.44-.056.71-0.1l0.2,1.083a3.464,3.464,0,0,1-.818.246,5.658,5.658,0,0,1-.96.083,2.416,2.416,0,0,1-1.986-.877,4.42,4.42,0,0,1-.707-2.778v-8.715h-2.091v-1.2h2.091v-3.247Zm15.1,5.447a4.592,4.592,0,0,1,1.541-1.713,4.024,4.024,0,0,1,2.235-.6,3.858,3.858,0,0,1,3.41,1.9,9.166,9.166,0,0,1,1.227,5.048v0.258a8.107,8.107,0,0,1-1.227,4.719,3.918,3.918,0,0,1-3.39,1.761,4.373,4.373,0,0,1-2.291-.578,4.288,4.288,0,0,1-1.55-1.666l-0.068,2.158h-1.153l-0.076-19.174h1.342v7.894Zm0,7.616A4.122,4.122,0,0,0,826.666,634a3.525,3.525,0,0,0,2.208.681,2.909,2.909,0,0,0,2.637-1.42,7.187,7.187,0,0,0,.883-3.819v-0.258a8.315,8.315,0,0,0-.9-4.117,2.865,2.865,0,0,0-2.646-1.584,3.264,3.264,0,0,0-2.253.761,4.535,4.535,0,0,0-1.267,1.944v5.984Zm11.03-2.067a6.157,6.157,0,0,0,.762,3.5,2.5,2.5,0,0,0,2.16,1.06,3.746,3.746,0,0,0,2.452-.75,3.955,3.955,0,0,0,1.273-2.073v-9.5h1.357v13.5h-1.195l-0.114-2.366a4.464,4.464,0,0,1-1.581,1.8,4.28,4.28,0,0,1-2.348.634A3.6,3.6,0,0,1,836.1,634.5a7.266,7.266,0,0,1-1.1-4.43v-7.719h1.356v7.758Zm33.383-1.966h2.67V626.5a2.928,2.928,0,0,0-.833-2.215,3.2,3.2,0,0,0-2.328-.806,3.506,3.506,0,0,0-2.32.767,2.36,2.36,0,0,0-.922,1.875l-1.228-.009-0.022-.076A3.254,3.254,0,0,1,866,623.4a4.778,4.778,0,0,1,3.313-1.165,4.6,4.6,0,0,1,3.219,1.109,4.088,4.088,0,0,1,1.217,3.178v6.483a12.686,12.686,0,0,0,.072,1.353,8.867,8.867,0,0,0,.241,1.3h-1.4c-0.089-.447-0.154-0.832-0.189-1.155a8.759,8.759,0,0,1-.057-0.987,5.542,5.542,0,0,1-1.788,1.718,4.715,4.715,0,0,1-2.513.681,3.622,3.622,0,0,1-2.744-1.024,3.8,3.8,0,0,1-.977-2.739,3.484,3.484,0,0,1,1.447-2.924A6.293,6.293,0,0,1,869.745,628.139Zm-3.347,5.816a2.524,2.524,0,0,0,1.872.675,4.489,4.489,0,0,0,2.547-.736,4.261,4.261,0,0,0,1.6-1.88V629.26h-2.694a4.643,4.643,0,0,0-2.909.842,2.578,2.578,0,0,0-1.089,2.1A2.363,2.363,0,0,0,866.4,633.955Zm10.6-3.791a6.072,6.072,0,0,0,.757,3.464,2.476,2.476,0,0,0,2.139,1.053,3.7,3.7,0,0,0,2.425-.745,3.909,3.909,0,0,0,1.262-2.051v-9.4h1.343v13.181h-1.186l-0.109-2.156a4.473,4.473,0,0,1-1.566,1.788,4.254,4.254,0,0,1-2.325.625,3.561,3.561,0,0,1-2.994-1.412,7.2,7.2,0,0,1-1.085-4.386v-7.64h1.339v7.68Z" transform="translate(-750 -579.969)"/>
</svg>
