<svg xmlns="http://www.w3.org/2000/svg" width="100" height="100" viewBox="0 0 100 100">
  <defs>
    <style>
      .cls-1 {
        fill: #fff;
        fill-rule: evenodd;
      }
    </style>
  </defs>
  <path class="cls-1" d="M1209,657H1109V557h100V657Zm-99-1h98V558h-98v98Zm75.94-35.949h-13.83v-1.274h13.83v1.274Zm-30.81,9.962-14.62-28.869-14.62,28.869-1.14-.576,15.76-31.117,15.76,31.117Zm38.62,0-14.62-28.869-14.62,28.869-1.13-.576,15.75-31.117,15.76,31.117Zm-7.81-9.962h-13.83v-1.274h13.83v1.274Zm0.21-33.619v-1.277h-22.34v34.261h1.28v-12.13h6.45V606.01h-6.45V586.433h21.06Zm-56.3,29.985a17.451,17.451,0,1,1,27.85-16.84l-1.26.221a16.173,16.173,0,1,0-25.81,15.609Zm10.66,3.634a17.308,17.308,0,0,1-7.29-1.591l0.53-1.159a16.2,16.2,0,0,0,13.3.1l0.52,1.168a17.35,17.35,0,0,1-7.06,1.487m10.66-3.632-0.78-1.012a16.272,16.272,0,0,0,5.61-8.121h-6.25V606.01h7.9l-0.2.791a17.55,17.55,0,0,1-6.28,9.619m-19.98,24.361h0.49l2.09,4.628h-0.55l-0.54-1.215h-2.5l-0.55,1.215h-0.53Zm1.28,2.947-1.04-2.343-1.05,2.343h2.09Zm3.98-2.914h1.98a1.829,1.829,0,0,1,1.31.458,1.293,1.293,0,0,1,.35.92,1.342,1.342,0,0,1-1.25,1.34l1.42,1.877h-0.64l-1.33-1.784h-1.32v1.784h-0.52v-4.6Zm1.93,2.344a1.028,1.028,0,0,0,1.19-.957,0.981,0.981,0,0,0-1.18-.907h-1.42v1.864h1.41Zm4.39-.047a2.314,2.314,0,0,1,2.32-2.376,2.359,2.359,0,0,1,1.78.742l-0.34.368a1.98,1.98,0,0,0-1.44-.63,1.9,1.9,0,0,0,0,3.792,1.987,1.987,0,0,0,1.48-.662l0.34,0.363a2.372,2.372,0,0,1-1.84.78A2.3,2.3,0,0,1,1142.77,643.111Zm6.82-2.3h0.52v2.041h2.65v-2.041h0.52v4.6h-0.52v-2.068h-2.65v2.068h-0.52v-4.6Zm6.81,0h0.52v4.6h-0.52v-4.6Zm4.85,0.48h-1.54v-0.48h3.61v0.48h-1.54v4.115h-0.53v-4.115Zm4.82-.48h3.32v0.472h-2.81v1.569h2.51v0.472h-2.51v1.61h2.84v0.472h-3.35v-4.6Zm5.96,2.3a2.322,2.322,0,0,1,2.33-2.376,2.375,2.375,0,0,1,1.78.742l-0.34.368a2.02,2.02,0,0,0-1.45-.63,1.9,1.9,0,0,0,0,3.792,2.025,2.025,0,0,0,1.49-.662l0.34,0.363a2.387,2.387,0,0,1-1.84.78A2.3,2.3,0,0,1,1172.03,643.111Zm8.04-1.817h-1.54v-0.48h3.61v0.48h-1.54v4.115h-0.53v-4.115Zm4.41,3.446,0.33-.382a2.148,2.148,0,0,0,1.57.649,0.886,0.886,0,0,0,1.03-.793c0-.426-0.24-0.669-1.2-0.873-1.06-.23-1.54-0.57-1.54-1.34a1.353,1.353,0,0,1,1.51-1.253,2.374,2.374,0,0,1,1.61.565l-0.3.4a2.015,2.015,0,0,0-1.33-.5,0.853,0.853,0,0,0-.98.753c0,0.435.24,0.677,1.25,0.9,1.03,0.221,1.5.6,1.5,1.313a1.383,1.383,0,0,1-1.57,1.3A2.69,2.69,0,0,1,1184.48,644.74Z" transform="translate(-1109 -557)"/>
</svg>
