<svg xmlns="http://www.w3.org/2000/svg" width="148.5" height="27.031" viewBox="0 0 148.5 27.031">
  <defs>
    <style>
      .cls-1 {
        fill: #fff;
        fill-rule: evenodd;
      }
    </style>
  </defs>
  <path class="cls-1" d="M1465.44,597.118h-3.95l-10.63,25.736h4.64l7.97-19.9,7.96,19.9h4.64Zm71.59,14.2a0.649,0.649,0,0,1-.08-0.1l-0.02-.026a6.085,6.085,0,0,0-.45-0.514v-0.007a0.325,0.325,0,0,1-.04-0.042c-1.68-1.718-4.03-2.381-6.09-2.966a20.734,20.734,0,0,1-2.55-.831l-0.07-.029a6.257,6.257,0,0,1-.61-0.317l-0.05-.029a3.164,3.164,0,0,1-1.78-2.531,2.873,2.873,0,0,1,.89-2.192,5.358,5.358,0,0,1,3.76-1.349,9.246,9.246,0,0,1,5.22,1.564l0.49,0.321,2.35-3.208-0.49-.32a13.61,13.61,0,0,0-7.57-2.26,9.613,9.613,0,0,0-6.74,2.55,6.58,6.58,0,0,0-2.03,5.068v0.035a6.829,6.829,0,0,0,3.18,5.288l-0.01.009,0.32,0.2c0.05,0.035.11,0.069,0.17,0.1l0.02,0.011a9.243,9.243,0,0,0,1.09.574,0.8,0.8,0,0,0,.1.045l0.56,0.246,0.01-.013c0.84,0.324,1.71.569,2.56,0.808,1.71,0.485,3.33.944,4.24,1.877a2.478,2.478,0,0,1,.17.191l0.05,0.069a0.181,0.181,0,0,1,.03.035l0.01,0.013a3.09,3.09,0,0,1,.63,1.926c0,2.674-2.46,4.075-4.88,4.075a10.834,10.834,0,0,1-6.51-1.727l-0.5-.3-2.19,3.308,0.5,0.3a15.022,15.022,0,0,0,8.7,2.319,9.8,9.8,0,0,0,6.23-2.113,7.48,7.48,0,0,0,2.77-5.863,6.81,6.81,0,0,0-1.39-4.184v-0.011Zm-101.57-3.266h-12.12V597.119h-4.09v25.734h4.09V611.92h12.12v10.933h4.08V597.119h-4.08v10.933Zm111.99-10.933v3.867h8.11v21.868h4.08V600.986h8.11v-3.867h-20.3Zm-47.4,0h-3.95l-10.63,25.736h4.64l7.96-19.9,7.97,19.9h4.64Z" transform="translate(-1419.25 -596.469)"/>
</svg>
