<svg xmlns="http://www.w3.org/2000/svg" width="177" height="44" viewBox="0 0 177 44">
  <defs>
    <style>
      .cls-1 {
        fill: #fff;
        fill-rule: evenodd;
      }
    </style>
  </defs>
  <path class="cls-1" d="M432.212,882.629v-1.805H564v1.805H432.212ZM564,876.313h-6.045A32.72,32.72,0,0,0,555,870.951l-2.727-4.1,2.367-3.068a33.628,33.628,0,0,0,3.73-5.516h4.219v0.025a32.932,32.932,0,0,0-5.377,4.769l-1.877,2.011,2.341,3.325A77.152,77.152,0,0,0,564,876.313Zm-12.039-2.01c0,0.979.128,1.237,1.029,1.443v0.567h-5.917v-0.567c0.9-.206,1.029-0.464,1.029-1.443V860.279c0-.979-0.129-1.237-1.029-1.443v-0.567h5.917v0.567c-0.9.206-1.029,0.464-1.029,1.443V874.3Zm-13.66,1.443c0.9-.206,1.029-0.464,1.029-1.443v-7.3h-6.946v7.3c0,0.979.129,1.237,1.029,1.443v0.567H527.5v-0.567c0.9-.206,1.028-0.464,1.028-1.443V860.279c0-.979-0.128-1.237-1.028-1.443v-0.567h5.916v0.567c-0.9.206-1.029,0.464-1.029,1.443v5.543h6.946v-5.543c0-.979-0.129-1.237-1.029-1.443v-0.567h5.917v0.567c-0.9.206-1.029,0.464-1.029,1.443V874.3c0,0.979.128,1.237,1.029,1.443v0.567H538.3v-0.567Zm-17.982-3.66-0.771-2.295h-5.711c-0.592,1.8-1.029,3.274-1.261,4.3-0.206,1.031-.36,1.8-0.386,2.217h-3.267a38.978,38.978,0,0,0,2.5-5.31l3.319-8.2a8.049,8.049,0,0,0,.875-2.913,1.035,1.035,0,0,0-1.029-1.057v-0.567h5.145a11,11,0,0,0,.669,2.681l3.781,10.8a32.406,32.406,0,0,0,1.929,4.563h-4.579A32.886,32.886,0,0,0,520.319,872.086Zm-3.576-10.776-2.5,7.27h4.914Zm-16.772,3.429c4.939,0,8.438.567,8.438,5.542,0,4.846-2.727,6.032-7.126,6.032h-7.2v-0.567c0.9-.206,1.029-0.464,1.029-1.443V860.279c0-.979-0.129-1.237-1.029-1.443v-0.567h13.4c-0.052,1.314-.052,2.6,0,3.918h-0.978l-0.231-.748c-0.566-1.856-1.209-2.036-3.55-2.036h-2.47c-1.132,0-1.286.283-1.286,1.057v4.279h1Zm-1,8.868c0,1.16.308,1.572,1.595,1.572h0.54c2.341,0,3.267-1.572,3.267-4.717,0-2.939-.8-4.589-3.833-4.589h-1.569v7.734Zm-13.531-4.434h-1.8v5.13c0,0.979.129,1.237,1.029,1.443v0.567h-5.917v-0.567c0.9-.206,1.029-0.464,1.029-1.443V860.279c0-.979-0.128-1.237-1.029-1.443v-0.567h7.46c3.576,0,6.252.85,6.252,5.181C492.46,867.858,489.784,869.173,485.437,869.173Zm-0.258-9.77h-0.411c-0.772,0-1.132.129-1.132,0.979v7.657h1.826c2.393,0,2.959-1.934,2.959-4.744C488.421,860.924,487.6,859.4,485.179,859.4Zm-21.711,16.91v-0.567c0.9-.206,1.029-0.464,1.029-1.443V860.279c0-.979-0.129-1.237-1.029-1.443v-0.567h12.553c-0.051,1.314-.051,2.6,0,3.918h-0.977l-0.232-.748c-0.566-1.856-1.209-2.036-3.55-2.036h-2.006c-0.772,0-.9.206-0.9,0.825v5.594h2.392a7.074,7.074,0,0,0,3.19-.542v2.269a7.088,7.088,0,0,0-3.19-.542h-2.392v6.728c0,1.083.437,1.444,2.8,1.444h0.514c2.341,0,2.958-.155,3.473-2.4l0.154-.67h1.132c-0.051,1.392-.051,2.809,0,4.2H463.468ZM453,864.739c4.939,0,8.438.567,8.438,5.542,0,4.846-2.727,6.032-7.126,6.032h-7.2v-0.567c0.9-.206,1.029-0.464,1.029-1.443V860.279c0-.979-0.129-1.237-1.029-1.443v-0.567h13.4c-0.052,1.314-.052,2.6,0,3.918h-0.978l-0.232-.748c-0.566-1.856-1.209-2.036-3.55-2.036h-2.469c-1.132,0-1.286.283-1.286,1.057v4.279h1Zm-1,8.868c0,1.16.308,1.572,1.595,1.572h0.54c2.341,0,3.267-1.572,3.267-4.717,0-2.939-.8-4.589-3.833-4.589H452v7.734Zm-11.576,1.34a9.311,9.311,0,0,0,4.5-1.057l0.566,1.083a11.576,11.576,0,0,1-6.148,1.65c-5.4,0-8.515-2.888-8.515-9.1,0-5.955,2.5-9.564,8.875-9.564a15.139,15.139,0,0,1,5.248.825c-0.051,1.212-.051,2.552,0,3.764h-1.158l-0.308-1.134c-0.412-1.341-1.209-2.269-3.653-2.269-3.833,0-4.811,2.836-4.811,7.708C435.016,871.493,435.968,874.947,440.419,874.947Zm-18.572-2.893,0,0.023v0l0,0.022,0,0.015v0.008l0,0.023v0.006l0,0.017,0,0.021v0l-0.008.07v0l0,0.021,0,0.017v0.006l0,0.023q-0.075.6-.192,1.189c-0.059.307-.129,0.612-0.205,0.914-0.033.133-.068,0.265-0.1,0.4l0,0.014,0,0.014-0.028.1,0,0.013-0.02.071,0,0.013-0.033.113,0,0.013-0.047.154c-0.041.13-.083,0.258-0.126,0.387l-0.009.028-0.019.055-0.009.027-0.01.028-0.009.026h0l-0.01.027-0.028.082h0c-0.025.072-.052,0.145-0.079,0.218h0q-0.12.326-.254,0.647h0l-0.045.107h0l-0.011.026-0.023.054-0.012.027-0.011.026-0.012.027-0.011.026-0.012.027h0l-0.012.026-0.012.027-0.011.026-0.012.027-0.012.026-0.012.027-0.012.026-0.024.053-0.012.026-0.012.026c-0.17.368-.353,0.729-0.546,1.084l-0.014.025-0.014.025-0.014.025-0.057.1a12.639,12.639,0,0,1-1.256,1.29,11.936,11.936,0,0,1-.82,1.648,17.18,17.18,0,0,1-1.222,1.267l-0.2.187-0.02.018-0.02.019h0l-0.02.018-0.021.019-0.02.018-0.021.018h0l-0.02.018-0.042.037-0.02.018h0q-0.456.4-.939,0.77l-0.222.167-0.023.016-0.022.016-0.022.017-0.023.016-0.022.016-0.023.017-0.022.016-0.023.016q-0.517.374-1.066,0.708a17.338,17.338,0,0,1-3.326,1.577q-0.462.162-.933,0.3l-0.054.015h0l-0.055.016-0.055.015h0l-0.055.016-0.055.015h0l-0.055.015-0.056.015h0l-0.056.015-0.055.014h0l-0.055.015-0.056.013h0l-0.056.014-0.055.013h0l-0.111.027h0a17.693,17.693,0,0,1-1.812.33h0c-0.063-.157-0.132-0.347-0.206-0.562,0.074,0.215.143,0.406,0.206,0.562l-0.027,0c-0.569.071-1.134,0.116-1.7,0.131h-0.975l-0.221-.007a17.672,17.672,0,0,1-2.713-.322l-0.027,0-0.021,0-0.022,0-0.026,0-0.018,0c-0.2-.244-0.4-0.492-0.6-0.739h0q-0.3-.372-0.593-0.749h0c-0.2-.251-0.388-0.5-0.576-0.762h0c-0.188-.256-0.373-0.516-0.552-0.778h0c-0.179-.261-0.353-0.528-0.52-0.8h0c-0.169-.27-0.329-0.544-0.484-0.823h0c-0.153-.279-0.3-0.561-0.437-0.851h0c0.137,0.289.284,0.572,0.437,0.851s0.315,0.553.484,0.823,0.341,0.538.52,0.8,0.364,0.522.552,0.778,0.381,0.511.576,0.762,0.395,0.5.593,0.749,0.4,0.5.6,0.739l-0.009,0-0.2-.042H400.72l-0.009,0-0.009,0c-0.114-.026-0.227-0.052-0.339-0.08l-0.649-.8h0c-0.216-.265-0.428-0.528-0.637-0.794h0c-0.21-.264-0.414-0.528-0.615-0.8h0c0.2,0.268.406,0.532,0.616,0.8s0.421,0.529.637,0.794l0.649,0.8c-0.5-.122-0.989-0.264-1.467-0.426l-0.02-.007h0l-0.025-.009h0l-0.022-.008-0.01,0-0.015,0-0.049-.017q-0.381-.481-0.751-0.931h0q-0.37-.453-0.727-0.886h0c-0.237-.291-0.472-0.578-0.7-0.868h0q-0.342-.432-0.665-0.875h0c-0.214-.294-0.423-0.6-0.623-0.91h0c0.2,0.312.409,0.616,0.623,0.91s0.437,0.588.665,0.876,0.461,0.577.7,0.868L398,885.753c0.247,0.3.5,0.61,0.752,0.931l-0.055-.02-0.018-.006h0l-0.019-.006-0.018-.007-0.018-.006-0.019-.007-0.018-.006-0.018-.007-0.018-.007-0.019-.006h0q-0.457-.167-0.905-0.358l-0.018-.008-0.016-.007h0l-0.017-.008-0.018-.007-0.018-.008-0.017-.007h0l-0.141-.062h0q-0.354-.159-0.7-0.333h0l-0.017-.009-0.018-.009-0.017-.008-0.017-.009h0l-0.018-.009-0.122-.062c-0.5-.5-0.99-0.994-1.455-1.5h0c-0.466-.5-0.912-1.015-1.331-1.55a0,0,0,0,0,0,0c0.42,0.536.866,1.049,1.332,1.551s0.953,1,1.456,1.5c-0.35-.182-0.695-0.375-1.032-0.58l-0.017-.01-0.016-.01-0.017-.01a15.134,15.134,0,0,1-1.419-1.292h0a17.3,17.3,0,0,1-1.26-1.452h0a17.3,17.3,0,0,0,1.26,1.452,15.273,15.273,0,0,0,1.42,1.292l-0.016-.011-0.017-.01-0.017-.01-0.016-.01h0l-0.017-.01-0.016-.011-0.017-.01-0.016-.01h0l-0.017-.01-0.016-.011-0.017-.01-0.1-.062-0.016-.011-0.017-.01-0.016-.01h0l-0.017-.01-0.016-.011-0.016-.01-0.016-.011h0l-0.048-.032-0.017-.01h0l-0.016-.011-0.016-.011-0.016-.01-0.017-.011h0l-0.016-.011-0.016-.01-0.016-.011-0.016-.011h0l-0.016-.011-0.016-.01-0.016-.011-0.016-.011h0l-0.016-.011-0.016-.011-0.016-.011-0.016-.011h0l-0.015-.011-0.016-.011-0.016-.011-0.016-.011h0l-0.015-.011-0.016-.01-0.016-.012-0.016-.011h0l-0.015-.011-0.016-.011-0.016-.011-0.016-.011h0l-0.016-.011-0.111-.079h0a17.573,17.573,0,0,1-1.439-1.145h0a17.407,17.407,0,0,1-1.32-1.3c0.27,0.1.516,0.182,0.749,0.262-0.233-.08-0.479-0.167-0.749-0.262a17.3,17.3,0,0,1-1.178-1.434h0a17.312,17.312,0,0,1-1.026-1.563c0.165,0.017.313,0.031,0.456,0.042-0.143-.011-0.291-0.025-0.456-0.042h0a17.172,17.172,0,0,1-1.275-2.693,17.534,17.534,0,0,1-.812-2.953h0v0h0a17.849,17.849,0,0,1-.287-2.775v-0.107c0-.107,0-0.215,0-0.322V869.88c0-.3.017-0.609,0.038-0.91l0.592,0.342a18.319,18.319,0,0,0,.307,3.734h0a18.307,18.307,0,0,1-.307-3.734l0.61,0.352a16.512,16.512,0,0,0,.1,1.838,16.512,16.512,0,0,1-.1-1.838l0.591,0.34a10.691,10.691,0,0,0,.215,2.317c0.127,0.568.244,1.153,0.374,1.76-0.13-.607-0.247-1.192-0.374-1.76h0a10.691,10.691,0,0,1-.215-2.317l0.563,0.324,0.553,0.32c0,0.143.014,0.275,0.028,0.4-0.014-.124-0.024-0.256-0.028-0.4l0.607,0.35c0.008,0.038.016,0.073,0.025,0.106-0.009-.033-0.017-0.068-0.025-0.106l0.206,0.119,0.579,0.334c0.041,0.206.071,0.416,0.1,0.634-0.025-.218-0.055-0.429-0.1-0.634l0.768,0.443h0l0.756,0.436h0l0.805,0.463c0.052,0.045.1,0.086,0.149,0.119h0c-0.047-.033-0.1-0.073-0.149-0.117l0.141,0.081,2.893,1.667h0l0.916,0.528,5.842-3.368,1.7-.978c0.087,0.478.162,0.943,0.231,1.4-0.069-.458-0.144-0.923-0.231-1.4l1.488-.858c0.125,0.706.223,1.4,0.3,2.077-0.08-.678-0.178-1.371-0.3-2.077l0.866-.5,1.722-.992c0.023,0.245.044,0.5,0.06,0.751-0.016-.256-0.037-0.506-0.06-0.751l2.395-1.381c0.014,0.244.023,0.494,0.03,0.747-0.007-.254-0.016-0.5-0.03-0.747l0.834-.48,0.367,0h0c0-.068-0.006-0.135-0.01-0.2l1.179-.68h0l1.058-.61c0.023,0.15.04,0.3,0.058,0.454-0.018-.151-0.035-0.3-0.058-0.454l0.977-.563a17.974,17.974,0,0,1,.307,1.966q0.029,0.288.048,0.584-0.02-.3-0.048-0.584h0a17.974,17.974,0,0,0-.307-1.966l0.5-.286,0.39-.225h0l0.8-.458h0l1.324-.763c0.062,0.144.121,0.291,0.181,0.436-0.06-.145-0.119-0.292-0.181-0.436l0.986-.569h0a17.452,17.452,0,0,1,.828,1.892l0.016,0.045,0,0,0.018,0.049,0.01,0.029,0.008,0.02,0.017,0.05h0l0,0.013,0,0.012,0.009,0.024,0.009,0.025c0.175,0.5.33,1.015,0.459,1.534,0.076,0.3.143,0.6,0.2,0.9l0,0.025,0,0.026v0l0,0.021,0.005,0.026,0,0.026,0,0.026,0,0.025,0.015,0.078,0,0.026,0,0.026v0.006l0,0.02,0,0.026,0,0.026,0,0.015,0,0.011,0,0.026,0,0.026,0,0.024h0l0,0.027,0,0.026,0,0.026v0.007l0,0.019,0,0.026,0,0.026,0,0.016v0.01l0,0.026,0,0.026,0,0.026h0l0,0.024,0,0.01,0,0.014,0,0.02v0l0,0.024v0.007l0,0.017,0,0.017v0.008l0,0.023v0l0,0.022,0,0.012v0.012l0,0.022v0l0,0.024v0.009l0,0.015,0,0.019v0.005l0,0.024v0l0,0.019,0,0.015v0.009l0,0.024h0l0,0.023,0,0.012v0.012l0,0.022v0l0,0.024v0.008l0,0.016,0,0.018v0.006l0,0.024v0l0,0.02,0,0.014v0.01l0,0.024h0l0,0.024,0,0.011V868.2l0,0.021v0l0,0.024v0.007l0,0.017,0,0.017,0.008,0.079,0,0.023h0l0,0.024v0.009l0,0.015c0.019,0.2.036,0.4,0.048,0.6s0.024,0.428.03,0.641v0.029c0,0.144,0,.287,0,0.432h0c0,0.139,0,.278,0,0.417Q421.928,871.314,421.847,872.054Zm-33.33.652h0c0.12,0.593.255,1.2,0.41,1.821C388.772,873.909,388.637,873.3,388.517,872.706Zm19.167,11.623c-0.073-.265-0.145-0.528-0.21-0.783h0C407.539,883.8,407.611,884.064,407.684,884.329ZM403.362,887c-0.132-.223-0.266-0.454-0.4-0.693h0c0.132,0.238.266,0.47,0.4,0.693a20.322,20.322,0,0,1-2.89-.418A20.179,20.179,0,0,0,403.362,887Zm-1.531-2.94c0.115,0.251.235,0.5,0.358,0.757a11.921,11.921,0,0,1-1.5-.051,11.921,11.921,0,0,0,1.5.051c0.124,0.253.252,0.506,0.381,0.755a14.28,14.28,0,0,1-1.563-.11,14.036,14.036,0,0,0,1.563.11c-0.129-.249-0.257-0.5-0.381-0.755h0c-0.123-.253-0.243-0.506-0.358-0.757h0q-0.176-.375-0.334-0.74h0c-0.106-.242-0.207-0.477-0.3-0.7h0a10.7,10.7,0,0,1-1.1-.011,10.7,10.7,0,0,0,1.1.011c0.094,0.226.195,0.462,0.3,0.7s0.218,0.491.335,0.74A9.51,9.51,0,0,1,399.9,884,9.51,9.51,0,0,0,401.831,884.059Zm-0.781-2.094q-0.251-.008-0.5-0.024c0.128,0.008.256,0.017,0.383,0.021,0.032,0.081.065,0.165,0.1,0.249-0.034-.084-0.067-0.168-0.1-0.249C400.971,881.964,401.01,881.964,401.05,881.965Zm-2.593,2.8c-0.274-.127-0.53-0.232-0.777-0.329C397.927,884.538,398.183,884.643,398.457,884.77Zm-2.781-3.115a6.524,6.524,0,0,1,1.121.6c0.165,0.3.338,0.586,0.515,0.87s0.366,0.564.557,0.838c0.027,0.039.056,0.076,0.084,0.115-0.028-.039-0.057-0.076-0.084-0.115h0c-0.191-.274-0.375-0.553-0.556-0.837,0,0,0,0,0,0-0.177-.284-0.35-0.573-0.515-0.87h0c-0.165-.3-0.322-0.6-0.468-0.915h0a8.739,8.739,0,0,0-1.036-.616,8.739,8.739,0,0,1,1.036.616c0.146,0.313.3,0.619,0.468,0.915A6.524,6.524,0,0,0,395.676,881.655Zm1.125-.742-0.1-.055c0.026,0.015.052,0.032,0.078,0.046,0.04,0.1.082,0.2,0.124,0.3-0.042-.1-0.084-0.2-0.124-0.3Zm-0.706-.1q-0.093-.222-0.182-0.448h0c-0.206-.475-0.384-0.925-0.544-1.359,0.16,0.434.338,0.884,0.544,1.359Q396,880.594,396.1,880.815Zm0,3.722,0.109,0.121-0.109-.121h0a0,0,0,0,0,0,0c-0.283-.081-0.555-0.163-0.824-0.249C395.536,884.372,395.809,884.455,396.092,884.537Zm-1.408-1.636c0.193,0.239.392,0.474,0.594,0.708,0.033,0.038.063,0.076,0.095,0.114h0c0.089,0.1.181,0.205,0.271,0.307-0.123-.14-0.244-0.28-0.366-0.421-0.2-.234-0.4-0.469-0.594-0.708h0c-0.223-.281-0.44-0.565-0.649-0.86h0C394.244,882.336,394.461,882.621,394.684,882.9Zm-0.075-.769c0.209,0.3.425,0.594,0.649,0.881s0.453,0.566.688,0.845,0.475,0.556.72,0.839l-0.278-.078,0.336,0.094-0.058-.016q-0.368-.421-0.72-0.839h0c-0.235-.279-0.465-0.56-0.687-0.845h0c-0.224-.286-0.44-0.578-0.648-0.881h0q-0.314-.453-0.6-0.944L394.2,881.2c-0.152-.013-0.3-0.026-0.43-0.04,0.077,0.008.154,0.017,0.237,0.024Q394.3,881.68,394.609,882.132Zm0.379-.4c-0.1-.162-0.191-0.327-0.283-0.5h0c-0.186-.339-0.362-0.691-0.527-1.063h0c-0.167-.373-0.323-0.763-0.47-1.18h0c0.147,0.416.3,0.807,0.47,1.18s0.342,0.724.528,1.063C394.8,881.408,394.892,881.573,394.988,881.735Zm-2.5-.775c0.137,0.223.279,0.44,0.424,0.654-0.145-.214-0.287-0.431-0.424-0.654h0q-0.274-.449-0.528-0.925h0Q392.219,880.512,392.493,880.96Zm-0.37.608q-0.279-.4-0.54-0.811h0Q391.845,881.171,392.123,881.568Zm-0.4-2.02q-0.12-.249-0.234-0.5h0Q391.6,879.3,391.719,879.548Zm-2.161-7.627h0c0.141,0.565.241,1.142,0.35,1.76C389.8,873.064,389.7,872.486,389.558,871.921Zm0.514-.385h0a10.609,10.609,0,0,1,.252,1.263A10.609,10.609,0,0,0,390.072,871.536Zm0.081,3.445h0c0.106,0.5.238,1.034,0.411,1.608C390.392,876.015,390.259,875.481,390.153,874.981Zm0.437,4.067h0a18.887,18.887,0,0,1-1.312-3.237h0a19.028,19.028,0,0,0,1.311,3.237h0l0,0Zm0.023-7.854h0a8.3,8.3,0,0,1,.273,1.517A8.3,8.3,0,0,0,390.613,871.194Zm0.994,2.688a2.572,2.572,0,0,0-.36.166,2.468,2.468,0,0,1,.442-0.188C391.662,873.868,391.633,873.873,391.607,873.882Zm0.682-.132h0a16.994,16.994,0,0,0,.354,1.985A17.207,17.207,0,0,1,392.289,873.75Zm0.12,5.253h0a18.708,18.708,0,0,1-1.359-4.839h0a18.734,18.734,0,0,0,1.359,4.84c0.148,0.393.31,0.763,0.481,1.115s0.353,0.685.544,1c0.166,0.277.343,0.539,0.522,0.8-0.179-.259-0.355-0.52-0.522-0.8h0c-0.191-.319-0.372-0.652-0.544-1h0C392.719,879.767,392.557,879.4,392.409,879Zm0.524-5.056h0c-0.033-.511-0.045-0.97-0.06-1.4,0.014,0.433.026,0.893,0.06,1.4,0.01,0.151.022,0.308,0.037,0.468C392.956,874.255,392.943,874.1,392.933,873.947Zm1.167,5.29a22.552,22.552,0,0,1-.738-2.441A22.111,22.111,0,0,0,394.1,879.237Zm0.763-1.743c-0.257-.871-0.442-1.664-0.6-2.417h0a5.67,5.67,0,0,1-.674-0.591,5.67,5.67,0,0,0,.674.591c0.158,0.753.341,1.547,0.6,2.417a10.43,10.43,0,0,1-.845-0.666,10.213,10.213,0,0,0,.845.666c0.05,0.167.105,0.339,0.16,0.511-0.055-.172-0.11-0.344-0.16-0.511h0Zm3.426,0.257h0A26.565,26.565,0,0,1,397,875.244h0a0,0,0,0,1,0,0,8.162,8.162,0,0,1-2.052-1.361A8.172,8.172,0,0,0,397,875.244a26.81,26.81,0,0,0,1.29,2.507,14.1,14.1,0,0,1-2.239-1.353,14.026,14.026,0,0,0,2.239,1.353c0.33,0.575.658,1.118,0.965,1.644C398.947,878.869,398.619,878.326,398.289,877.751Zm-0.577,1.412a16.286,16.286,0,0,0,1.84.752A16.286,16.286,0,0,1,397.712,879.163Zm1.873,0.762a13.259,13.259,0,0,0,2.541.59,10.229,10.229,0,0,1,.45.947,10.464,10.464,0,0,0-.449-0.947h0A13.41,13.41,0,0,1,399.585,879.925Zm1.494-1.395c0.194,0.388.383,0.744,0.56,1.074-0.177-.33-0.366-0.686-0.56-1.074,0.065,0.006.132,0.009,0.2,0.014-0.081-.006-0.161-0.011-0.24-0.019Zm3.044-3.088q-0.05-.317-0.105-0.646h0a13.159,13.159,0,0,1-2.752.851,13.159,13.159,0,0,0,2.752-.851q0.056,0.33.105,0.646,0.166,1.047.291,1.944C404.331,876.789,404.234,876.139,404.123,875.442Zm-1.5,7.067,0.513-.046h0Zm1.891-4.373c0.06,0.45.111,0.866,0.157,1.247Q404.606,878.811,404.516,878.136Zm0.291,2.4c0.049,0.452.087,0.818,0.118,1.1C404.894,881.356,404.856,880.99,404.807,880.538Zm0.155,1.4h0c0.018,0.051.04,0.114,0.062,0.182C405,882.054,404.98,881.992,404.962,881.94Zm0.146,0.445h0c0.028,0.088.057,0.184,0.088,0.284C405.165,882.569,405.136,882.473,405.108,882.385Zm0.646,2.206c-0.082-.281-0.16-0.558-0.239-0.825h0c0.079,0.267.157,0.544,0.239,0.825-0.583.017-1.175,0.066-1.77,0.113-0.106-.275-0.211-0.551-0.312-0.818h0c-0.1-.265-0.2-0.523-0.287-0.762h0c-0.3.033-.606,0.07-0.908,0.1,0.3-.033.605-0.069,0.908-0.1,0.09,0.239.186,0.5,0.287,0.762s0.2,0.542.311,0.819c0.6-.048,1.187-0.1,1.771-0.114,0.081,0.281.163,0.565,0.245,0.843,0.016,0.051.031,0.1,0.046,0.153-0.015-.051-0.03-0.1-0.046-0.153h0c-0.082-.278-0.164-0.562-0.245-0.843h0Zm0.153-6.872c-0.02.008-.041,0.014-0.06,0.022,0.019-.008.04-0.013,0.06-0.021h0Zm0.012,0a12.708,12.708,0,0,0,1.3-.588A13.633,13.633,0,0,1,405.919,877.716Zm1.217,2.179c0.016-.311.032-0.652,0.046-1.017C407.168,879.243,407.152,879.584,407.136,879.9Zm0.025,2.942c0.042-.009.084-0.015,0.126-0.025,0.027,0.11.055,0.224,0.084,0.34-0.029-.116-0.057-0.23-0.084-0.34,0.2-.047.4-0.105,0.6-0.166C407.645,882.719,407.4,882.784,407.161,882.837Zm0.374-.791a14.371,14.371,0,0,0,1.784-.7A14.371,14.371,0,0,1,407.535,882.046Zm1.844,0.06h0c0.015,0.124.034,0.25,0.054,0.376C409.413,882.356,409.4,882.23,409.379,882.106Zm0.293,1.576h0c0.06,0.265.123,0.529,0.184,0.788C409.8,884.21,409.732,883.948,409.672,883.682Zm-1.424,2.923a17.4,17.4,0,0,0,1.927-.631A17.4,17.4,0,0,1,408.248,886.605Zm5.4-2.366c-0.548.333-1.124,0.653-1.719,0.951C412.528,884.892,413.1,884.572,413.652,884.239Zm0.03-.848h0c-0.007.284-.014,0.565-0.03,0.848C413.668,883.956,413.675,883.673,413.682,883.391Zm-1.779.987c0.032-.017.064-0.035,0.1-0.051l-0.1.05-0.053.027Zm-0.212-1.623c0.033,0.275.073,0.549,0.109,0.819-0.036-.27-0.076-0.544-0.109-0.819h0Zm-0.125-1.7c0,0.293.013,0.581,0.036,0.864-0.023-.285-0.035-0.571-0.036-0.864l0.052-.028q-0.463.245-.921,0.471Q411.129,881.282,411.566,881.052Zm0.1-12c0.014,0.483.047,0.991,0.088,1.512C411.715,870.04,411.682,869.532,411.668,869.049Zm0.386,5.1c-0.023-.348-0.052-0.694-0.08-1.04,0.028,0.346.057,0.693,0.079,1.041a24.756,24.756,0,0,1,.052,2.632c-0.47.309-.942,0.631-1.414,0.952,0.472-.321.944-0.643,1.415-0.952h0a25.028,25.028,0,0,0-.053-2.632h0Zm-0.282,5.081c-0.166.1-.331,0.2-0.5,0.3,0.4-.234.791-0.472,1.188-0.708Zm1.468-5.687-0.007,0,0.119-.051C413.315,873.51,413.277,873.525,413.24,873.542Zm-2.306,6.987c1-.536,2.02-1.13,3.058-1.7C412.954,879.4,411.931,879.993,410.934,880.529Zm2.869,3.615c0.208-.128.416-0.257,0.624-0.392l0.052-.035Q414.142,883.936,413.8,884.144Zm0.255-17.629h0c0.024,0.6.025,1.218,0,1.878C414.083,867.733,414.083,867.113,414.058,866.515Zm0.09,4.517h0c0.041,0.31.09,0.626,0.139,0.946C414.238,871.658,414.189,871.342,414.148,871.032Zm0.3,2.075h0c0.034,0.257.062,0.518,0.086,0.782C414.513,873.625,414.485,873.364,414.451,873.107Zm6.176,1.743c0.071-.312.137-0.623,0.2-0.933h0c-0.063.31-.129,0.62-0.2,0.933h0c-0.072.31-.147,0.622-0.228,0.932C420.48,875.472,420.555,875.16,420.627,874.85Zm-1.934,1.993h0q0.105-.492.208-0.981l-0.208.981-0.716.455Zm-0.274-2.381c-0.061.319-.133,0.644-0.217,0.979l-0.617.377,0.617-.377h0C418.286,875.106,418.358,874.781,418.419,874.462Zm-0.647,2.966h0c0.066-.33.134-0.663,0.2-1l0,0q-0.1.5-.205,0.993l-0.791.5Zm-1.3,2.543,0.014-.01c-0.257.164-.516,0.328-0.776,0.489C415.967,880.292,416.223,880.132,416.474,879.971Zm-1.038,1.5h0c-0.036.3-.074,0.6-0.113,0.893C415.361,882.072,415.4,881.774,415.436,881.473Zm-0.238,1.761c0.042-.263.078-0.53,0.114-0.8q-0.054.4-.114,0.8a0,0,0,0,1,0,0A0,0,0,0,0,415.2,883.234Zm0.019-16.745a22.624,22.624,0,0,1,.017,2.537A22.624,22.624,0,0,0,415.217,866.489Zm0.05,10.722c-0.095.35-.175,0.695-0.246,1.029,0.071-.335.152-0.68,0.248-1.03h0a10.238,10.238,0,0,0,.378-2.317,10.351,10.351,0,0,1-.378,2.317h0Zm0.3-4.412h0c-0.07-.658-0.167-1.289-0.24-1.91h0c0.073,0.621.169,1.252,0.24,1.91,0.042,0.393.072,0.8,0.085,1.216C415.639,873.6,415.609,873.193,415.567,872.8Zm0.465,4.84c-0.073.337-.136,0.668-0.195,1,0.057-.327.122-0.661,0.195-1h0Zm-0.352,1.967c-0.32.2-.641,0.392-0.964,0.583h0q0.483-.287.966-0.584h0c0.32-.2.64-0.4,0.957-0.6Q416.164,879.31,415.68,879.606Zm0.976-7.144h0c-0.039-.617-0.106-1.21-0.158-1.8,0.052,0.593.119,1.187,0.158,1.8a13.641,13.641,0,0,1,.006,1.942A13.641,13.641,0,0,0,416.656,872.462Zm0.161,5.568h0c-0.063.329-.122,0.657-0.178,0.981,0.056-.324.115-0.652,0.178-0.981s0.128-.664.2-1l0.015-.01-0.016.01C416.945,877.367,416.879,877.7,416.817,878.03Zm0.819-4.073h0l-0.649.3Zm-0.217-7.634h0a16.2,16.2,0,0,1,.138,1.652A16.2,16.2,0,0,0,417.419,866.323Zm1.008-.114h0q0.107,0.612.163,1.243Q418.532,866.822,418.427,866.209Zm0.285,3.851c-0.017-.562-0.044-1.123-0.068-1.695,0.024,0.572.051,1.134,0.066,1.7-0.346.106-.7,0.212-1.075,0.313h0c0.006,0.107.011,0.215,0.017,0.322-0.006-.107-0.011-0.215-0.017-0.322,0.369-.1.729-0.208,1.075-0.313,0.016,0.561.021,1.123,0,1.7,0.019-.574.014-1.136,0-1.7h0Zm0.1-5.918h0q0.232,0.7.411,1.407Q419.044,864.841,418.81,864.142Zm0.537,1.952h0c0.036,0.165.068,0.331,0.1,0.5C419.415,866.425,419.383,866.259,419.347,866.094Zm0.111,7.029-0.4.18,0.4-.18h0c0.049-.321.089-0.638,0.122-0.954C419.548,872.485,419.508,872.8,419.458,873.123Zm0.15-8.971h0q0.185,0.51.337,1.028Q419.792,864.663,419.608,864.152Zm0.117,3.907,0.766-.226a13.924,13.924,0,0,1,.092,1.615,13.953,13.953,0,0,0-.092-1.616h0Zm0.438-2.073q0.114,0.462.2,0.924c-0.055-.308-0.121-0.616-0.2-0.924h0Zm0.695-.085h0c-0.148-.575-0.332-1.151-0.539-1.717l0.06,0-0.061,0h0l-0.047,0,0.048,0c0.207,0.566.389,1.141,0.539,1.717q0.16,0.614.269,1.225Q421.019,866.516,420.858,865.9Zm-8.036.407c0,0.067.007,0.134,0.01,0.2l-0.367,0Zm5.657-5.414c-13.224,7.661-20.627,11.949-20.846,12.075l-0.013.007-0.012-.007-10.327-6.017h0v0h0v0l-0.006,0h0V866.92h0.016l0,0h0c0.018-.1.037-0.194,0.057-0.29s0.044-.21.068-0.316h0c0.02-.091.041-0.181,0.062-0.272l0-.017v0l0-.021,0-.014,0-.007,0.006-.021,0-.009,0-.012,0-.02v-0.006l0-.015,0-.021v0l0.009-.037v0c0.051-.2.105-0.4,0.162-0.6v0l0.006-.021,0-.014,0.02-.068,0-.006,0-.014,0.006-.02,0.007-.021,0-.019h0l0.019-.061,0.417,0.241h0l0.539,0.311-0.067.308,0.067-.308,0.36,0.208h0l0.221,0.128h0l0.6,0.345,0.085,0.049h0l0.493,0.284,0.557,0.321h0l0.537,0.31h0l0.532,0.306h0l0.562,0.324a12.459,12.459,0,0,0-.137,2.056,12.459,12.459,0,0,1,.137-2.056l1.3,0.749,2.695,1.553h0l0.951,0.548,5.069-2.921c0.008,0.045.017,0.091,0.026,0.136-0.009-.046-0.017-0.091-0.026-0.136l1.637-.943h0l1.49-.859c0.113,0.44.224,0.885,0.33,1.34,0.006,0.029.013,0.059,0.019,0.089-0.006-.03-0.013-0.06-0.019-0.089h0c-0.106-.455-0.217-0.9-0.33-1.34l2.273-1.31c0.162-.027.323-0.052,0.483-0.077,0.02,0.083.037,0.167,0.057,0.249-0.02-.083-0.037-0.166-0.057-0.249q0.625-.093,1.229-0.162c-0.4.046-.812,0.1-1.229,0.162l0-.02,0,0.02c-0.16.025-.321,0.05-0.483,0.077l0.439-.254h0l2.5-1.439c0.107,0.443.2,0.879,0.28,1.316,0.039,0.212.074,0.423,0.106,0.636h0c-0.033-.213-0.068-0.425-0.107-0.636h0c-0.08-.437-0.173-0.873-0.28-1.316l1.158-.667c0.053,0.205.1,0.4,0.142,0.606-0.046-.2-0.089-0.4-0.142-0.606l0.728-.42h0l0.34-.2,0.056,0.2c0.128,0.464.234,0.912,0.328,1.355-0.094-.443-0.2-0.891-0.328-1.356h0l-0.056-.2,0.862-.5,0.8-.46q0.114,0.318.221,0.626-0.106-.308-0.221-0.626l1.258-.725h0l0.119-.068,0.9-.52c0.181,0.094.358,0.183,0.532,0.27-0.174-.087-0.351-0.176-0.532-0.27l0.6-.347c0.048,0.023.095,0.042,0.143,0.063l-0.143-.063,0.131-.075h0l0.095,0.114,0,0,0,0h0l0,0,0,0,0,0,0,0,0,0,0,0,0,0,0,0,0,0h0l0,0,0.044,0.055h0l0.017,0.02,0,0.006,0,0,0,0,0,0.006,0,0.006h0c0.092,0.115.185,0.233,0.275,0.351h0c0.144,0.19.283,0.381,0.418,0.575l0,0.007,0.006,0.009h0l0,0.006,0.007,0.01,0,0,0.008,0.011,0,0,0.009,0.013v0l0.01,0.014h0l0.01,0.015,0.01,0.014v0l0.009,0.013,0,0,0.008,0.013,0,0,0.008,0.012,0,0,0.007,0.01,0,0,0.006,0.009,0,0.007,0,0.008,0.006,0.009,0,0.006,0.007,0.01,0,0,0.007,0.011,0,0L419,860.4l0,0,0.009,0.013v0l0.01,0.014h0l0.01,0.014h0l0.01,0.015h0l0.009,0.013,0,0,0.008,0.012,0,0,0.007,0.011-0.007,0,0.013,0.023h0v0h0v0h0l0,0h0v0h0v0Zm-30.609,6.323h0q0.3-.156.605-0.3Q388.167,867.062,387.87,867.217Zm0.772-1.287h0c-0.071.328-.115,0.662-0.166,0.985,0.051-.322.1-0.657,0.167-0.985,0.051-.022.1-0.042,0.156-0.064Zm0.334,1.924h0c0-.047.013-0.093,0.019-0.139C388.989,867.762,388.981,867.808,388.976,867.854Zm0.581,0.336h0c0.023-.172.054-0.35,0.082-0.526C389.611,867.84,389.58,868.018,389.557,868.19Zm0.561,0.323c0.068-.457.154-0.942,0.257-1.444C390.272,867.571,390.186,868.056,390.118,868.513Zm1.1,0.632h0c0.071-.5.178-1.086,0.313-1.714C391.391,868.06,391.284,868.642,391.213,869.145Zm0.6,0.347c0.027-.319.075-0.687,0.138-1.084C391.888,868.805,391.84,869.173,391.813,869.492Zm1.959,1.13h0c0.016-.394.054-0.852,0.112-1.354C393.826,869.77,393.787,870.228,393.772,870.622Zm2.856,1.419a10.575,10.575,0,0,1,.035-1.853A10.575,10.575,0,0,0,396.628,872.041Zm7.911-4.326h0c0.066,0.29.131,0.584,0.194,0.879C404.67,868.3,404.605,868.005,404.539,867.715Zm8.052-3.522h0l0,0.014h0Zm1.751-2.307h0c0.115,0.385.22,0.761,0.314,1.133h0C414.562,862.647,414.457,862.271,414.342,861.886Zm1.976,0.174h0l-0.016-.045Zm0.029-2.03h0l-0.14-.046,0.14,0.046c0.079,0.182.155,0.361,0.232,0.54C416.5,860.391,416.426,860.212,416.347,860.03Zm1.694,0.622h0c0.056,0.1.111,0.212,0.167,0.319h0Zm-2.047-2.733-18.373,10.646-0.013-.007c-0.134-.076-5.426-3.161-7.969-4.643l-1.217-.71v0h0v0h0v0h0l0.017-.029,0.01-.018h0l0.011-.024c0.037-.038.079-0.072,0.119-0.108-0.04.036-.082,0.07-0.119,0.108q0.243-.555.524-1.093h0c0.1-.192.2-0.382,0.311-0.57l0.174,0.1h0l0.341,0.2h0l0.491,0.284,0.618,0.356,0.046,0.027,0.576,0.331h0l0.053,0.031h0l0.559,0.322h0l0.492,0.284h0l0.439,0.253h0l0.268,0.154h0l0.1,0.058h0l0.848,0.489h0l0.432,0.249c-0.061.254-.117,0.507-0.172,0.759,0.055-.252.111-0.5,0.172-0.759l2.5,1.44,0.388,0.224,4.39-2.53c0.1,0.646.206,1.31,0.321,1.987h0c-0.114-.676-0.221-1.341-0.321-1.987l1.433-.825c0.04,0.2.084,0.4,0.127,0.606-0.043-.2-0.087-0.406-0.127-0.607l1.393-.8c0.072,0.322.149,0.643,0.229,0.964-0.08-.321-0.157-0.642-0.229-0.964l2.662-1.534h0l1.5-.865c0.133-.031.264-0.059,0.395-0.088-0.131.029-.262,0.057-0.395,0.088l0.917-.528c0.036,0.105.067,0.206,0.1,0.314s0.073,0.228.11,0.342c-0.037-.114-0.072-0.225-0.11-0.342h0c-0.036-.108-0.067-0.21-0.1-0.314l0.066-.038a11.279,11.279,0,0,1,2.364-.228v0a11.48,11.48,0,0,0-2.364.229l1.988-1.145c0.007,0.017.014,0.034,0.022,0.051-0.008-.017-0.014-0.035-0.022-0.051l0.734-.424a8.513,8.513,0,0,1,1,.245q-0.17-.319-0.35-0.617l0.583-.336h0l0.278-.16,0.474-.273,0.007,0-0.007,0,0.373-.216h0a17.958,17.958,0,0,1,1.4,1.186l0.007,0.006h0l0.016,0.015,0.012,0.011,0.011,0.011,0.073,0.07,0,0,0.009,0.016,0,0h0l0.013,0.022h0v0h0v0h0v0h0Zm-27.231,5.409h0c0.043-.118.087-0.235,0.13-0.352C388.85,863.093,388.806,863.21,388.763,863.328Zm0.668-.336,0.03-.088h0c0.033-.1.063-0.2,0.1-0.3C389.514,862.73,389.473,862.862,389.431,862.992Zm3.129,2.523h0c0.02-.078.041-0.157,0.062-0.235C392.6,865.358,392.58,865.437,392.56,865.515Zm0.354-1.276a0.05,0.05,0,0,0,0,.013c0-.012.007-0.025,0.011-0.037A0.217,0.217,0,0,0,392.914,864.239Zm15.092-1.837,0.115-.022h0Zm4.65-2.636q-0.086-.247-0.175-0.5h0q0.09,0.255.175,0.5h0Zm2.008-2.516h0c0.138,0.183.281,0.381,0.425,0.59C414.945,857.631,414.8,857.433,414.664,857.25Zm0.2-.728h0c0.249,0.253.491,0.515,0.73,0.784C415.355,857.036,415.113,856.774,414.864,856.522Zm-2.161,1.043,0.646-.372c0.119,0.2.237,0.4,0.35,0.617A8.318,8.318,0,0,0,412.7,857.565Zm-15.07,6.584-0.013.007-0.012-.007-5.657-3.3-1.636-.955h0v0h0v0h0l0.013-.023v0h0l0-.006,0.007-.012v0l0,0q0.31-.426.643-0.831h0c0.129-.157.26-0.312,0.4-0.465l0,0,0.01-.011,0.01-.012,0,0,0.013-.014,0,0,0.009-.01,0.011-.013h0l0.013-.015,0.006-.006,0.007-.008,0.013-.015h0l0.013-.014,0.007-.008,0.006-.007,0.013-.014h0l0.013-.014,0.007-.009,0.1,0.056h0l0.443,0.256h0l0.332,0.191a0.209,0.209,0,0,0,0,.025,0.209,0.209,0,0,1,0-.025l0.2,0.114,0.414,0.239,0.03,0.24c0.032,0.242.065,0.486,0.091,0.727-0.026-.241-0.059-0.485-0.091-0.727l-0.03-.24,0.209,0.12,0.448,0.258,0.028,0.193c0.035,0.241.063,0.478,0.077,0.708-0.014-.23-0.042-0.467-0.077-0.708l-0.028-.193,0.154,0.089h0L394.4,860l0.488,0.282c-0.14.107-.285,0.222-0.434,0.342,0.149-.12.294-0.235,0.434-0.342l0.414,0.238h0l0.423,0.244h0l1.9,1.094,3.833-2.209c0.006,0.052.013,0.1,0.019,0.154l-0.019-.154,2.358-1.359c0.089,0.323.2,0.64,0.31,0.961,0.1,0.286.2,0.575,0.28,0.873h0c-0.082-.3-0.18-0.587-0.28-0.873h0c-0.111-.321-0.221-0.638-0.31-0.961l2.144-1.235h0l0.235-.136,2.129-1.226,1.091-.629,0.389-.225c0.042,0.035.084,0.07,0.126,0.107-0.042-.037-0.084-0.072-0.126-0.107l0.327-.188a12.368,12.368,0,0,1,1.94.569,12.262,12.262,0,0,0-1.94-.569l1.125-.648h0c0.105,0.044.209,0.089,0.313,0.135,0.2,0.244.4,0.458,0.6,0.654-0.2-.2-0.4-0.41-0.6-0.654a17.284,17.284,0,0,1,1.7.875l0.013-.007,0.012,0.021h0l0.012,0.021h0v0h0l0,0h0Zm-5.111-3.629c0-.011,0-0.022,0-0.033,0.013,0.208.022,0.413,0.025,0.615C392.542,860.911,392.534,860.716,392.522,860.52Zm0.135,0.646h0c0.1-.042.189-0.087,0.281-0.132C392.846,861.079,392.753,861.123,392.657,861.166Zm1.293,0.745h0c0.013-.049.027-0.095,0.04-0.144C393.977,861.816,393.963,861.862,393.95,861.911Zm3.527,2.034,0.074-.009-0.074.009h0Zm-2.249-1.3h0c0.134-.528.275-1.071,0.418-1.6C395.5,861.577,395.362,862.12,395.228,862.648Zm0.2,0.114h0a38.045,38.045,0,0,1,3.961-.725A38.045,38.045,0,0,0,395.426,862.762Zm6.287-1.092h0c-0.009-.063-0.018-0.126-0.026-0.187Zm-0.216-1.679c0.59-.124,1.191-0.291,1.8-0.478C402.688,859.7,402.087,859.867,401.5,859.991Zm5.272-1.665h0c-0.189-.471-0.389-0.923-0.562-1.368h0c0.173,0.444.371,0.9,0.562,1.367,0.047,0.115.093,0.232,0.138,0.35h0C406.861,858.558,406.815,858.441,406.769,858.326Zm0.387-.129c0.429-.143.854-0.279,1.271-0.4h0C408.011,857.918,407.585,858.054,407.156,858.2Zm3.666-2.259a5.829,5.829,0,0,0-.566-0.684,6.127,6.127,0,0,1,.565.684h0c0.079,0.111.156,0.227,0.233,0.346h0c-0.076-.119-0.154-0.235-0.233-0.346h0Zm0.086,0.006a5.534,5.534,0,0,1,.618.068h0A5.551,5.551,0,0,0,410.908,855.944Zm-20.576,3.91h0Zm29.37,18.887-0.013.023-0.014.025-0.014.025-0.014.023v0l-0.014.024-0.015.025-0.014.025-0.014.023h0l-0.015.024-0.014.025-0.015.025-0.013.024h0l-0.014.025-0.1.171h0c-0.182.3-.374,0.6-0.574,0.885l-0.017.023-0.016.024-0.016.023h0l-0.017.023-0.016.024-0.016.023-0.017.024h0l-0.016.022-0.016.022-0.016.022-0.015.022h0l-0.016.022-0.016.023-0.016.022-0.016.021h0l-0.017.022-0.015.022-0.017.022-0.015.021h0l-0.016.022-0.016.022-0.017.022-0.015.021h0l-0.016.022-0.017.021-0.016.022-0.015.021h0l-0.017.021-0.016.022-0.017.022-0.015.02h0l-0.016.022-0.017.021-0.017.022-0.015.02h0l-0.017.022-0.017.021-0.017.021q-0.278.353-.573,0.689a11.138,11.138,0,0,0,.811-1.633A11.758,11.758,0,0,0,419.7,878.741Zm79.759,8.5c1.5,0,2.259.747,2.259,2,0,1.121-.689,1.743-1.932,2.117a1.918,1.918,0,0,1,1.367,1.822c0,1.55-1.05,2.433-3.106,2.433h-2.835l1.6-8.375h2.643Zm1.377,1.992c0-.883-0.474-1.256-1.569-1.256h-1.751l-0.564,2.942h1.671C500.059,890.915,500.838,890.214,500.838,889.229Zm-2.631,5.647c1.321,0,2.067-.7,2.067-1.686a1.76,1.76,0,0,0-1.943-1.539h-1.513l-0.61,3.225h2Zm6.9-5.33a2.183,2.183,0,0,1,2.156,1.731l-0.756.148a1.372,1.372,0,0,0-1.389-1.189c-1.085,0-2.056,1.177-2.056,2.909a1.579,1.579,0,0,0,1.6,1.844,1.635,1.635,0,0,0,1.6-1.142l0.633,0.283a2.465,2.465,0,0,1-2.338,1.606,2.368,2.368,0,0,1-2.293-2.659C502.273,891.153,503.5,889.546,505.109,889.546Zm5.76,0a2.063,2.063,0,0,1,2.146,2.365,5.563,5.563,0,0,1-.08.77h-4.189c-0.012.136-.034,0.328-0.034,0.464a1.625,1.625,0,0,0,1.558,1.9,2.2,2.2,0,0,0,1.864-1.4l0.643,0.351a3.027,3.027,0,0,1-2.631,1.742c-1.344,0-2.225-1-2.225-2.6C507.921,891.108,509.152,889.546,510.869,889.546ZM512.19,892a1.268,1.268,0,0,0,.034-0.374,1.323,1.323,0,0,0-1.355-1.392c-1.118,0-1.638.7-1.976,1.766h3.3Zm6.111-2.332-0.125.679h-2.541l-1.028,5.263h-0.79l1.163-5.942H518.3Zm-0.667,5.263,2.5-5.263h1.164l0.655,5.263h0.587l-0.35,1.833h-0.61l0.124-1.154h-3.986l-0.328,1.154h-0.61l0.35-1.833h0.508Zm3.491,0-0.441-4.482h-0.169l-2.056,4.482h2.666Zm5.5-2.852h0.8a4.742,4.742,0,0,0,.079-0.7,1.128,1.128,0,0,0-1.31-1.143,2.02,2.02,0,0,0-1.322.668l-0.508-.475a2.844,2.844,0,0,1,1.932-.883,1.792,1.792,0,0,1,2,1.754,6.274,6.274,0,0,1-.113.917l-0.395,1.969a6.143,6.143,0,0,0-.136,1.426h-0.745a3.143,3.143,0,0,1-.057-0.668,2.775,2.775,0,0,1-1.739.792,1.664,1.664,0,0,1-1.672-1.709C523.44,892.828,524.57,892.081,526.625,892.081Zm-2.394,1.9a1.033,1.033,0,0,0,1.028,1.064,3.064,3.064,0,0,0,1.716-.758l0.328-1.573h-0.565C525.078,892.715,524.231,893.156,524.231,893.982Zm10.459-4.312-0.125.725a2.454,2.454,0,0,1,1.751-.849c1.287,0,2.01.883,2.01,2.49,0,2.161-1.264,3.7-2.846,3.7a2.426,2.426,0,0,1-1.727-.747L533.176,898h-0.79L534,889.67h0.689Zm0.745,5.376c1.107,0,2.1-1.313,2.1-3.055,0-1.132-.52-1.755-1.39-1.755a2.016,2.016,0,0,0-1.66,1.008l-0.576,2.931A1.825,1.825,0,0,0,535.435,895.046Zm4.089-3.723a1.833,1.833,0,0,1,2.033-1.653H544.4l-1.163,5.942h-0.791l0.531-2.716h-1.412l-1.909,2.716h-0.892l1.943-2.761A1.547,1.547,0,0,1,539.524,891.323Zm1.852,0.894h1.739l0.362-1.868h-1.92a1.081,1.081,0,0,0-1.242.985A0.871,0.871,0,0,0,541.376,892.217Zm3.874,2.716,2.5-5.263h1.163l0.655,5.263h0.587l-0.35,1.833h-0.61l0.124-1.154H545.33L545,896.766h-0.61l0.35-1.833h0.508Zm3.49,0-0.44-4.482h-0.17l-2.055,4.482h2.665Zm5.072-5.387c1.265,0,2.089,1.007,2.089,2.6,0,1.981-1.3,3.587-2.846,3.587-1.287,0-2.112-.973-2.112-2.58C550.943,891.074,552.264,889.546,553.812,889.546Zm-0.723,5.5c1.062,0,2.022-1.313,2.022-3.01,0-1.132-.577-1.8-1.378-1.8-1.017,0-2,1.29-2,3.056A1.517,1.517,0,0,0,553.089,895.046Zm6.1-5.376,0.655,5.127,2.474-5.127h1.321l-1.163,5.942h-0.791l1.017-5.206-2.6,5.206h-0.768l-0.779-5.206-1.017,5.206h-0.79l1.163-5.942h1.276Z" transform="translate(-387 -854)"/>
</svg>
