<svg id="Слой_1" data-name="Слой 1" xmlns="http://www.w3.org/2000/svg" viewBox="0 0 728.60156 149.22656"><polygon points="695.867 62.398 726.227 28.914 703.613 28.914 678.75 56.777 678.75 28.914 660.762 28.914 660.762 99.254 678.75 99.254 678.75 69.645 705.363 99.254 728.602 99.254 695.867 62.398" fill="#fff"/><polygon points="629.035 55.152 604.176 55.152 604.176 28.918 586.184 28.918 586.184 99.254 604.176 99.254 604.176 71.52 629.035 71.52 629.035 99.254 647.027 99.254 647.027 28.918 629.035 28.918 629.035 55.152" fill="#fff"/><path d="M106.82031,67.01953c-.42968,13.11719-2.125,15.74219-9.49609,15.74219V99.25391h2.75c18.38672,0,22.80859-9.4961,23.48828-30.60938l.74609-23.36328h17.24219V99.25391H159.543V28.918H108.07031Z" fill="#fff"/><path d="M204.25781,50.28125H191.26563V28.91406H173.27344V99.25391h31.23437c19.61328,0,26.60938-12.74219,26.60938-24.73828C231.11719,59.02734,221.375,50.28125,204.25781,50.28125Zm-1.375,33.48047H191.26563V65.89844h11.61718c6.2461,0,9.9961,2.74609,9.9961,8.61719C212.87891,80.88672,209.25391,83.76172,202.88281,83.76172Z" fill="#fff"/><path d="M289.71484,27.293V1.17969H271.72266V27.293c-20.61328,1.74609-34.48047,16.36719-34.48047,36.73047,0,20.48828,13.86719,35.10547,34.48047,36.85547v26.48828h17.99218V100.87891c20.61329-1.625,34.48047-16.36719,34.48047-36.85547S310.32813,28.91406,289.71484,27.293ZM271.72266,83.88672c-9.9961-1.375-16.24219-8.87109-16.24219-19.86328,0-10.9961,6.24609-18.49219,16.24219-19.86328Zm17.99218,0V44.16016c9.99219,1.37109,16.23829,8.86718,16.23829,19.86328C305.95313,75.01563,299.707,82.51172,289.71484,83.88672Z" fill="#fff"/><path d="M391.66016,77.64063V54.02734c0-17.23828-10.99219-28.10937-29.48438-28.10937-19.11328,0-29.23437,11.49219-30.10937,23.48828h18.24218c.6211-2.625,3.3711-7.12109,11.86719-7.12109,6.9961,0,11.4961,3.24609,11.4961,11.74218H355.80469c-15.99219,0-25.48828,8.3711-25.48828,22.36329,0,14.61718,10.38672,24.61328,25.36328,24.61328,10.98047,0,17.07812-5.19141,19.73828-9.1211,2.375,4.7461,7.62109,7.3711,14.49219,7.3711h6.24609V83.01172C392.91016,83.01172,391.66016,81.51172,391.66016,77.64063Zm-17.98828-4.625c0,8.12109-5.75,12.74609-13.2461,12.74609-6.49609,0-11.61719-2.375-11.61719-9.37109,0-6.8711,5.6211-7.9961,10.49219-7.9961h14.3711Z" fill="#fff"/><path d="M468.74609,38.91016H448.63281V19.04688h46.59766V1.17969H429.76563V99.25391h38.98046c21.61329,0,33.98047-10.7461,33.98047-30.48438C502.72656,50.15625,490.35938,38.91016,468.74609,38.91016Zm-.875,42.60156H448.63281V56.02734h19.23828c9.9961,0,15.61719,4.6211,15.61719,12.74219C483.48828,77.14063,477.86719,81.51172,467.87109,81.51172Z" fill="#fff"/><path d="M571.56641,77.64063V54.02734c0-17.23828-10.99219-28.10937-29.48438-28.10937-19.11328,0-29.23437,11.49219-30.10937,23.48828h18.24218c.6211-2.625,3.3711-7.12109,11.86719-7.12109,6.9961,0,11.4961,3.24609,11.4961,11.74218H535.71094c-15.99219,0-25.48828,8.3711-25.48828,22.36329,0,14.61718,10.38672,24.61328,25.36328,24.61328,10.98047,0,17.07812-5.19141,19.73828-9.1211,2.375,4.7461,7.62109,7.3711,14.49219,7.3711h6.25V83.01172C572.81641,83.01172,571.56641,81.51172,571.56641,77.64063Zm-17.98828-4.625c0,8.12109-5.75,12.74609-13.2461,12.74609-6.49609,0-11.61719-2.375-11.61719-9.37109,0-6.8711,5.6211-7.9961,10.49219-7.9961h14.3711Z" fill="#fff"/><polygon points="0 129.238 0 149.227 96.199 149.227 97 149.227 97 129 0 129 0 129.238" fill="#fff"/><path d="M28.60938,79.14063H66.58984l6.3711,20.11328H93.94922L65.58594,14.64063C62.84375,6.46094,59.68359,0,48.84766,0c-10.832,0-14.19532,6.43359-17.082,14.64063L2,99.25391H21.73828ZM47.85156,22.043h.4961L61.09375,62.14844H34.35547Z" fill="#fff"/></svg>